<?xml version="1.0" encoding="UTF-8"?>
<svg version="1.1" xmlns="http://www.w3.org/2000/svg" width="1000" height="1000">
<path d="M0 0 C330 0 660 0 1000 0 C1000 330 1000 660 1000 1000 C670 1000 340 1000 0 1000 C0 670 0 340 0 0 Z " fill="#EDE8FC" transform="translate(0,0)"/>
<path d="M0 0 C20.8413537 16.42643972 33.43344508 38.15000741 38.25 64.125 C38.43949219 64.91003906 38.62898437 65.69507813 38.82421875 66.50390625 C42.964766 91.99296315 35.11005646 117.95515704 20.66015625 138.87890625 C4.80981944 160.76061349 -18.69458728 174.94194918 -45.0625 180.3125 C-71.38473051 184.31510722 -98.84740582 178.35634123 -120.421875 162.48046875 C-123.95282814 159.79865005 -127.37485792 156.99965867 -130.75 154.125 C-131.43835938 153.54105469 -132.12671875 152.95710937 -132.8359375 152.35546875 C-143.02871996 142.90441459 -150.47990449 129.85823078 -155.75 117.125 C-156.20729492 116.02333496 -156.20729492 116.02333496 -156.67382812 114.89941406 C-165.41194574 92.69553636 -165.10479064 64.06101988 -155.75 42.125 C-144.01925405 15.21429313 -123.73753855 -3.74817058 -96.75 -14.875 C-95.90953125 -15.22175781 -95.0690625 -15.56851562 -94.203125 -15.92578125 C-92.06577911 -16.7092069 -89.95772919 -17.31936346 -87.75 -17.875 C-86.69296875 -18.15085937 -85.6359375 -18.42671875 -84.546875 -18.7109375 C-55.06612136 -25.54796334 -23.99586222 -18.26925948 0 0 Z " fill="#4029EE" transform="translate(295.75,419.875)"/>
<path d="M0 0 C5.84034773 1.31407824 10.08483442 4.57091053 14 9 C14.73046875 11.2265625 14.73046875 11.2265625 15 13 C15.88042969 12.65066406 16.76085937 12.30132812 17.66796875 11.94140625 C19.41013672 11.25884766 19.41013672 11.25884766 21.1875 10.5625 C22.33605469 10.11003906 23.48460937 9.65757812 24.66796875 9.19140625 C34.21787217 5.77672801 47.54466247 5.06470595 57.09375 9.03125 C58.03734375 9.51078125 58.03734375 9.51078125 59 10 C59.6703125 10.3403125 60.340625 10.680625 61.03125 11.03125 C69.28377602 15.72884174 74.81785243 22.05910958 79.3125 30.3125 C79.63798828 30.90401855 79.96347656 31.49553711 80.29882812 32.10498047 C85.61523247 42.4089679 86.47852902 52.47453688 86.375 63.9375 C86.38660156 65.21818359 86.39820313 66.49886719 86.41015625 67.81835938 C86.35412431 86.1501433 80.34467915 103.15186423 68.19921875 117.0625 C62.46021582 122.5680103 55.16867211 125.75397045 48 129 C46.76830078 129.56267578 46.76830078 129.56267578 45.51171875 130.13671875 C31.38031636 134.99370153 13.73764028 132.50882743 0.328125 126.3984375 C-2.4940336 125.00060777 -5.26222258 123.55555535 -8 122 C-7.07803034 112.16238761 -6.13910693 102.3675493 -4.56640625 92.609375 C-0.78683537 68.5243854 1.17843694 44.43943418 1.1875 20.0625 C1.18849701 19.34209534 1.18949402 18.62169067 1.19052124 17.87945557 C1.19019762 15.82708299 1.18121111 13.7749826 1.16796875 11.72265625 C1.16047607 10.54453369 1.1529834 9.36641113 1.14526367 8.15258789 C1.01465514 5.31805349 0.64872844 2.75636786 0 0 Z M18 22 C16.90130531 30.91812815 15.89330046 39.83782601 15.0625 48.78515625 C14.46069029 55.1931602 13.84506844 61.59928061 13.19650269 68.00273132 C12.8394356 71.53290894 12.48958643 75.06378779 12.14013672 78.59472656 C11.9626353 80.37235589 11.78227262 82.14970173 11.59912109 83.92675781 C10.39282768 95.66401415 9.73978894 107.19991045 10 119 C21.67227903 122.4686408 32.80270849 121.98596376 44 117 C56.84499572 109.7694836 64.99991089 97.03852931 69 83 C70.17222662 76.76698812 70.21850904 70.57968225 70.25 64.25 C70.270625 63.2290625 70.29125 62.208125 70.3125 61.15625 C70.37477146 48.88877241 67.26935353 36.90885043 58.85546875 27.63671875 C51.30948801 20.60494454 45.13152531 18.48890488 35 18.625 C34.13632812 18.61339844 33.27265625 18.60179687 32.3828125 18.58984375 C26.83271783 18.61514813 22.9423388 19.46167926 18 22 Z " fill="#26145A" transform="translate(549,433)"/>
<path d="M0 0 C5.82478934 0.6934273 10.04028175 2.24127849 14.4375 6.1875 C16.83806378 10.50851481 15.65101862 14.62615703 14.39309692 19.21298218 C13.63527156 21.59301893 12.81911804 23.94300038 11.97265625 26.29296875 C11.66360855 27.16148972 11.35456085 28.03001068 11.03614807 28.92485046 C7.6427771 38.27025185 3.59182974 47.28629266 -0.5625 56.3125 C-1.35342873 58.04899284 -2.14345276 59.78589801 -2.93261719 61.52319336 C-4.90582741 65.86315619 -6.88773515 70.19907835 -8.87213135 74.53393555 C-11.55156051 80.39245906 -14.21421285 86.25858476 -16.87179565 92.12704468 C-17.71398094 93.98311838 -18.56110494 95.83694876 -19.40844727 97.69067383 C-22.65454193 104.83569432 -22.65454193 104.83569432 -25.54492188 112.12841797 C-25.80210999 112.81528183 -26.0592981 113.50214569 -26.32427979 114.20982361 C-27.03832078 116.13857547 -27.72933276 118.07580733 -28.41894531 120.01342773 C-30 123 -30 123 -32.51538086 124.40991211 C-35.20940715 125.04973343 -37.54668196 125.19875515 -40.3125 125.125 C-41.19550781 125.10695313 -42.07851563 125.08890625 -42.98828125 125.0703125 C-43.65214844 125.04710937 -44.31601562 125.02390625 -45 125 C-47.53373395 118.81449477 -48.9734221 112.81062837 -50.1875 106.25 C-53.14298673 90.92289672 -56.54683998 75.70422428 -59.99023438 60.48095703 C-60.80648437 56.86824081 -61.60871744 53.25259451 -62.40675354 49.63581848 C-67.29541341 27.18706953 -67.29541341 27.18706953 -76 6 C-71.10758872 2.8049559 -68.02291176 1.21925218 -62 2 C-57.72803898 3.84471044 -56.10797426 5.9287364 -54 10 C-53.02821033 12.80390282 -52.28727041 15.65086506 -51.5625 18.52734375 C-51.34859619 19.35975082 -51.13469238 20.1921579 -50.91430664 21.04978943 C-48.54630097 30.47783581 -46.75465778 40.00510078 -45 49.5625 C-44.65619918 51.40759784 -44.31170889 53.25256733 -43.96655273 55.09741211 C-43.45275102 57.8450476 -42.93957489 60.59278577 -42.42930603 63.34107971 C-41.44750539 68.6282814 -40.44291139 73.91000817 -39.41015625 79.1875 C-39.17876953 80.37013428 -38.94738281 81.55276855 -38.70898438 82.77124023 C-38.29465664 84.88058772 -37.87818539 86.98951598 -37.45898438 89.09790039 C-36.36092447 94.7244805 -35.55490622 100.29322759 -35 106 C-34.34 106 -33.68 106 -33 106 C-32.62746094 104.84113281 -32.25492187 103.68226563 -31.87109375 102.48828125 C-30.44090701 98.19772104 -28.88327334 93.960703 -27.28515625 89.73046875 C-21.41944402 74.19457935 -15.72692867 58.61754183 -10.4375 42.875 C-10.19033234 42.14775726 -9.94316467 41.42051453 -9.68850708 40.67123413 C-5.21957279 27.49033713 -1.01431339 13.94680912 0 0 Z " fill="#26145A" transform="translate(454,439)"/>
<path d="M0 0 C-0.50925944 4.45602012 -1.78489033 6.86526807 -5 10 C-11.4672268 13.61439404 -17.58065852 15.05161338 -24.95703125 15.31640625 C-26.62475586 15.37924805 -26.62475586 15.37924805 -28.32617188 15.44335938 C-29.47666016 15.48267578 -30.62714844 15.52199219 -31.8125 15.5625 C-32.98232422 15.60568359 -34.15214844 15.64886719 -35.35742188 15.69335938 C-38.23817031 15.79918279 -41.11900123 15.90126825 -44 16 C-44.02578125 16.94875 -44.0515625 17.8975 -44.078125 18.875 C-44.56999398 31.77809415 -46.69420698 44.31092777 -49 57 C-45.37415429 56.91794473 -41.74984922 56.80521876 -38.125 56.6875 C-36.60519531 56.65366211 -36.60519531 56.65366211 -35.0546875 56.61914062 C-28.27525288 56.3801221 -22.38715692 55.29225801 -16 53 C-15.53071022 62.73010488 -15.53071022 62.73010488 -19 67 C-21.84535725 68.42267862 -24.36218552 68.21971869 -27.5390625 68.31640625 C-28.84101562 68.35830078 -30.14296875 68.40019531 -31.484375 68.44335938 C-32.86458045 68.48317299 -34.24478883 68.52288522 -35.625 68.5625 C-37.01303415 68.60569407 -38.40105528 68.64930865 -39.7890625 68.69335938 C-43.19260256 68.79972 -46.59621778 68.90174714 -50 69 C-52.13958423 87.0336385 -52.22225542 104.87421606 -52 123 C-53.59345952 123.0474872 -55.18733027 123.08130093 -56.78125 123.109375 C-57.66876953 123.12967773 -58.55628906 123.14998047 -59.47070312 123.17089844 C-63.21471961 122.91792435 -65.25408484 121.47132365 -68 119 C-73.17730083 110.97468601 -69.67990615 97.43924921 -68.5625 88.5 C-68.42779297 87.36046875 -68.29308594 86.2209375 -68.15429688 85.046875 C-67.58574546 80.32096473 -66.98489467 75.65953404 -66 71 C-69.465 71.99 -69.465 71.99 -73 73 C-73.47297836 68.27021642 -73.83439337 64.3672822 -70.75 60.5 C-68 58 -68 58 -64 57 C-62.68 43.47 -61.36 29.94 -60 16 C-62.31 16 -64.62 16 -67 16 C-68.921875 14.81640625 -68.921875 14.81640625 -70 13 C-70.328125 10.58984375 -70.328125 10.58984375 -70.25 7.9375 C-70.22679687 6.62072266 -70.22679687 6.62072266 -70.203125 5.27734375 C-70 3 -70 3 -69 1 C-68.33902817 1.00222061 -67.67805634 1.00444122 -66.99705505 1.00672913 C-60.10245302 1.02889469 -53.20786115 1.04395363 -46.31323242 1.05493164 C-43.74193917 1.05995275 -41.17064877 1.06677092 -38.59936523 1.07543945 C-34.89826759 1.08760235 -31.19720777 1.09325063 -27.49609375 1.09765625 C-26.35103867 1.10281754 -25.20598358 1.10797882 -24.02622986 1.11329651 C-15.9341793 1.11386213 -8.06802993 -0.14154438 0 0 Z " fill="#251359" transform="translate(866,442)"/>
<path d="M0 0 C1.43960245 0.11963716 2.87825268 0.25076818 4.31640625 0.38671875 C5.11763916 0.45850342 5.91887207 0.53028809 6.74438477 0.60424805 C10.03157495 1.18099177 11.740709 2.60378227 14 5 C16.57887321 8.76812094 16.3135759 12.78660707 16.265625 17.18359375 C16.26040833 17.98075302 16.25519165 18.77791229 16.24981689 19.59922791 C16.12575303 27.11765595 15.24222035 34.43823369 14.09118652 41.85983276 C13.49200896 45.7280652 12.93765515 49.60288106 12.375 53.4765625 C12.2592865 54.26467819 12.143573 55.05279388 12.02435303 55.86479187 C10.80572569 64.20703325 9.76074302 72.56790432 8.75 80.9375 C8.66745972 81.60911163 8.58491943 82.28072327 8.49987793 82.97268677 C7.43572153 91.63652867 6.59169036 100.29094268 6 109 C23.53315185 108.6627165 40.65556797 107.72617644 58 105 C56.22593381 114.65179552 56.22593381 114.65179552 53.125 117.9375 C52.63257813 118.48277344 52.14015625 119.02804687 51.6328125 119.58984375 C47.89972493 122.81387392 44.82384986 123.24720599 39.94628906 123.22705078 C38.72532532 123.22689972 37.50436157 123.22674866 36.24639893 123.22659302 C34.93274353 123.21627045 33.61908813 123.20594788 32.265625 123.1953125 C30.90370898 123.19158042 29.54179027 123.18873437 28.17987061 123.18673706 C24.60252414 123.17911594 21.02534115 123.15948069 17.44805908 123.1373291 C13.7948223 123.11683778 10.14155899 123.10772833 6.48828125 123.09765625 C-0.67455353 123.07623322 -7.83725383 123.04211582 -15 123 C-14.31032637 118.71264741 -13.41821424 116.79672074 -10 114 C-9.34 114 -8.68 114 -8 114 C-8.33 113.01 -8.66 112.02 -9 111 C-9.99328058 96.92215791 -7.7753715 82.92937021 -6 69 C-5.73360581 66.86337701 -5.46796244 64.72666026 -5.203125 62.58984375 C-4.94798659 60.5390538 -4.69277947 58.4882724 -4.4375 56.4375 C-4.31286377 55.43493164 -4.18822754 54.43236328 -4.05981445 53.39941406 C-3.53103086 49.16494028 -2.99627632 44.93289667 -2.40234375 40.70703125 C-0.60150436 27.19406606 -0.35543725 13.61498066 0 0 Z " fill="#26145A" transform="translate(668,440)"/>
<path d="M0 0 C4.29 0 8.58 0 13 0 C13 29.7 13 59.4 13 90 C42.7 90 72.4 90 103 90 C103 94.29 103 98.58 103 103 C69.01 103 35.02 103 0 103 C0 69.01 0 35.02 0 0 Z " fill="#E8E2FC" transform="translate(189,442)"/>
<path d="M0 0 C1.44062587 0.1365299 2.8806189 0.27974822 4.3203125 0.42578125 C5.52324951 0.54433472 5.52324951 0.54433472 6.75048828 0.6652832 C9.82297894 1.12245541 11.63617658 1.98379767 14 4 C16.78500268 8.55988764 17.47463169 12.38617151 17.36328125 17.6328125 C17.35038811 18.73606369 17.35038811 18.73606369 17.3372345 19.86160278 C17.13412762 28.0880517 15.9110394 36.1493072 14.60626221 44.26147461 C13.88534191 48.7607906 13.21387162 53.26759749 12.53515625 57.7734375 C12.40059021 58.66017151 12.26602417 59.54690552 12.12738037 60.46051025 C7.03312406 93.65178729 7.03312406 93.65178729 9 127 C3.15647924 125.68520783 -1.15424237 122.5017504 -5 118 C-7.93905419 112.55134247 -8.51096909 108.07246809 -8.4375 101.9375 C-8.43210205 101.03974854 -8.4267041 100.14199707 -8.42114258 99.21704102 C-8.16786248 87.30686982 -6.21437912 75.56396495 -4.53027344 63.79150391 C-1.55691288 42.53170211 -0.37992486 21.43531878 0 0 Z " fill="#26155A" transform="translate(497,440)"/>
<path d="M0 0 C1.41750563 0.11509661 2.83401169 0.24253658 4.25 0.375 C5.03890625 0.44460938 5.8278125 0.51421875 6.640625 0.5859375 C10.22987957 1.21583979 12.37236507 2.25902242 14.73046875 5.04296875 C16.5109025 9.19000983 16.39816688 12.84754234 16.3125 17.3125 C16.31733398 18.50842773 16.31733398 18.50842773 16.32226562 19.72851562 C16.25238666 27.89164922 15.10791378 35.92739957 14 44 C13.88562592 44.83955231 13.77125183 45.67910461 13.65341187 46.5440979 C12.62435009 54.0893706 11.58227986 61.63286746 10.52905273 69.17480469 C8.61594249 82.89213877 6.80969449 96.4350792 6.875 110.3125 C6.87113281 111.15361328 6.86726562 111.99472656 6.86328125 112.86132812 C6.87080482 117.68017467 7.19205671 122.24852399 8 127 C1.22186725 124.42430955 -3.96944426 121.54547307 -7.375 114.9375 C-11.09927023 105.19138419 -8.7254924 93.99235506 -7.46185303 83.88424683 C-7.17960337 81.62427163 -6.90756284 79.36323344 -6.63720703 77.10180664 C-5.87311077 70.76028715 -5.08693764 64.4261326 -4.13671875 58.109375 C-1.27430646 38.86063753 -0.7771531 19.42324652 0 0 Z " fill="#251359" transform="translate(750,440)"/>
<path d="M0 0 C3.96 0 7.92 0 12 0 C12 18.48 12 36.96 12 56 C30.48 56 48.96 56 68 56 C68 59.96 68 63.92 68 68 C45.56 68 23.12 68 0 68 C0 45.56 0 23.12 0 0 Z " fill="#EEE9FD" transform="translate(227,440)"/>
</svg>
