<?xml version="1.0" encoding="UTF-8"?>
<svg version="1.1" xmlns="http://www.w3.org/2000/svg" width="500" height="500">
<path d="M0 0 C5.98718728 4.04048621 12.20189073 8.40693269 14.1875 15.6875 C14.8475 15.6875 15.5075 15.6875 16.1875 15.6875 C16.98557198 17.37198018 17.77562301 19.06026127 18.5625 20.75 C19.00335938 21.68972656 19.44421875 22.62945312 19.8984375 23.59765625 C22.7182997 30.35678049 23.54633915 36.26291498 23.5 43.5 C23.49581055 44.3878418 23.49162109 45.27568359 23.48730469 46.19042969 C23.31934324 55.91432568 20.75625006 63.18017231 16.1875 71.6875 C15.5275 71.6875 14.8675 71.6875 14.1875 71.6875 C13.9296875 72.43128906 13.671875 73.17507813 13.40625 73.94140625 C9.45712623 82.83959218 -0.14635396 88.22528809 -8.70703125 91.9453125 C-21.93821163 96.70520884 -36.94442129 96.46120374 -49.8125 90.6875 C-56.31171608 87.22851 -61.9994533 83.28104076 -66.8125 77.6875 C-66.8125 77.0275 -66.8125 76.3675 -66.8125 75.6875 C-67.4725 75.6875 -68.1325 75.6875 -68.8125 75.6875 C-70.46875 73.2734375 -70.46875 73.2734375 -72.3125 70.0625 C-72.9209375 69.01835937 -73.529375 67.97421875 -74.15625 66.8984375 C-80.24525934 55.09380148 -80.40631149 40.32641006 -76.8125 27.6875 C-74.86428532 21.87733762 -72.62552966 16.51733757 -68.8125 11.6875 C-68.1525 11.6875 -67.4925 11.6875 -66.8125 11.6875 C-66.55210938 11.09710938 -66.29171875 10.50671875 -66.0234375 9.8984375 C-61.26634952 1.21291558 -50.44759403 -3.33752087 -41.546875 -6.45703125 C-27.04531661 -9.77904096 -12.67994281 -7.60796569 0 0 Z M-30.8125 15.6875 C-30.8125 25.9175 -30.8125 36.1475 -30.8125 46.6875 C-19.9225 46.6875 -9.0325 46.6875 2.1875 46.6875 C2.1875 45.3675 2.1875 44.0475 2.1875 42.6875 C-7.0525 42.6875 -16.2925 42.6875 -25.8125 42.6875 C-25.75 33.1875 -25.75 33.1875 -25.72241211 30.24414062 C-25.70575559 24.96133619 -26.03707936 19.91395721 -26.8125 14.6875 C-28.18143239 14.63479537 -28.18143239 14.63479537 -30.8125 15.6875 Z M-48.8125 16.6875 C-50.26655278 20.16583259 -49.94196249 23.97983418 -49.9453125 27.69140625 C-49.94626923 28.36993149 -49.94722595 29.04845673 -49.94821167 29.74754333 C-49.94889102 31.18399142 -49.94705381 32.62044261 -49.94287109 34.05688477 C-49.93757755 36.21833516 -49.94279397 38.37957217 -49.94921875 40.54101562 C-49.95257183 48.30172932 -49.71725029 55.9703304 -48.8125 63.6875 C-43.3989264 65.9386119 -38.57489739 65.94811791 -32.8203125 65.8828125 C-31.87437225 65.8799826 -30.92843201 65.87715271 -29.9538269 65.87423706 C-26.94825306 65.86308932 -23.94298298 65.83799465 -20.9375 65.8125 C-18.89323349 65.80246321 -16.84896228 65.79333859 -14.8046875 65.78515625 C-9.80717556 65.76316767 -4.8098892 65.72867509 0.1875 65.6875 C0.1875 64.0375 0.1875 62.3875 0.1875 60.6875 C-14.6625 60.6875 -29.5125 60.6875 -44.8125 60.6875 C-44.8125 45.8375 -44.8125 30.9875 -44.8125 15.6875 C-46.18143239 15.63479537 -46.18143239 15.63479537 -48.8125 16.6875 Z " fill="#362BEE" transform="translate(144.8125,206.3125)"/>
<path d="M0 0 C0.87688477 -0.00128906 1.75376953 -0.00257813 2.65722656 -0.00390625 C9.83602714 0.11243527 15.73445849 1.38011931 22.3125 4.375 C22.3125 4.705 22.3125 5.035 22.3125 5.375 C15.3825 4.88 15.3825 4.88 8.3125 4.375 C8.3125 3.715 8.3125 3.055 8.3125 2.375 C2.3725 2.705 -3.5675 3.035 -9.6875 3.375 C-9.6875 4.695 -9.6875 6.015 -9.6875 7.375 C-9.0275 7.375 -8.3675 7.375 -7.6875 7.375 C-7.6875 8.035 -7.6875 8.695 -7.6875 9.375 C-8.285625 9.21 -8.88375 9.045 -9.5 8.875 C-11.80094336 8.2635876 -11.80094336 8.2635876 -14.6875 8.375 C-15.491875 8.33375 -16.29625 8.2925 -17.125 8.25 C-19.90313535 8.3855188 -21.39487595 8.81929083 -23.6875 10.375 C-24.0175 11.365 -24.3475 12.355 -24.6875 13.375 C-24.0275 13.375 -23.3675 13.375 -22.6875 13.375 C-22.6875 12.715 -22.6875 12.055 -22.6875 11.375 C-22.0275 11.375 -21.3675 11.375 -20.6875 11.375 C-21.3475 13.355 -22.0075 15.335 -22.6875 17.375 C-22.0275 17.375 -21.3675 17.375 -20.6875 17.375 C-20.3575 18.035 -20.0275 18.695 -19.6875 19.375 C-19.048125 19.643125 -18.40875 19.91125 -17.75 20.1875 C-15.6875 21.375 -15.6875 21.375 -14.375 23.6875 C-13.61270701 26.6673726 -13.85063249 28.4459637 -14.6875 31.375 C-14.0275 31.705 -13.3675 32.035 -12.6875 32.375 C-12.935 33.30699219 -12.935 33.30699219 -13.1875 34.2578125 C-14.01968757 39.44598187 -13.72586524 44.65267311 -13.6484375 49.89453125 C-13.60375687 54.84663416 -13.83627528 59.49375822 -14.6875 64.375 C-12.2125 63.88 -12.2125 63.88 -9.6875 63.375 C-9.6875 64.365 -9.6875 65.355 -9.6875 66.375 C-9.07753174 66.36976318 -8.46756348 66.36452637 -7.83911133 66.35913086 C-5.05941815 66.33826665 -2.27974149 66.32530987 0.5 66.3125 C1.45970703 66.30412109 2.41941406 66.29574219 3.40820312 66.28710938 C4.33955078 66.28388672 5.27089844 66.28066406 6.23046875 66.27734375 C7.08406982 66.27210693 7.9376709 66.26687012 8.81713867 66.26147461 C11.40496747 66.37920677 13.78911953 66.80392956 16.3125 67.375 C16.3125 67.705 16.3125 68.035 16.3125 68.375 C5.4225 68.375 -5.4675 68.375 -16.6875 68.375 C-17.0175 54.185 -17.3475 39.995 -17.6875 25.375 C-18.6775 25.045 -19.6675 24.715 -20.6875 24.375 C-20.71247151 29.30053348 -20.73048678 34.226029 -20.74243164 39.15161133 C-20.74741846 40.82251631 -20.75421031 42.49341702 -20.76293945 44.16430664 C-20.80935731 53.28678123 -20.81053748 62.30333871 -19.6875 71.375 C-9.9994562 72.55865217 -0.30907931 72.70999315 9.4375 72.9375 C11.1744877 72.98077881 12.911467 73.02439578 14.6484375 73.06835938 C18.86970499 73.17447344 23.0910598 73.27600529 27.3125 73.375 C27.9725 74.695 28.6325 76.015 29.3125 77.375 C30.3025 75.395 30.3025 75.395 31.3125 73.375 C33.97916667 73.375 36.64583333 73.375 39.3125 73.375 C38.9825 77.005 38.6525 80.635 38.3125 84.375 C37.3225 84.375 36.3325 84.375 35.3125 84.375 C35.3125 85.035 35.3125 85.695 35.3125 86.375 C33.375 86.9375 33.375 86.9375 31.3125 87.375 C30.9825 87.045 30.6525 86.715 30.3125 86.375 C29.8175 88.355 29.8175 88.355 29.3125 90.375 C25.8475 90.87 25.8475 90.87 22.3125 91.375 C22.3125 92.365 22.3125 93.355 22.3125 94.375 C21.3225 94.375 20.3325 94.375 19.3125 94.375 C19.3125 95.035 19.3125 95.695 19.3125 96.375 C21.2925 96.87 21.2925 96.87 23.3125 97.375 C11.62820266 103.80136354 -2.8795226 104.36476822 -15.625 100.8125 C-24.55909241 97.62014122 -32.48716074 92.58079968 -38.6875 85.375 C-38.6875 84.715 -38.6875 84.055 -38.6875 83.375 C-39.3475 83.375 -40.0075 83.375 -40.6875 83.375 C-42.34375 80.9609375 -42.34375 80.9609375 -44.1875 77.75 C-44.7959375 76.70585937 -45.404375 75.66171875 -46.03125 74.5859375 C-52.12025934 62.78130148 -52.28131149 48.01391006 -48.6875 35.375 C-46.73928532 29.56483762 -44.50052966 24.20483757 -40.6875 19.375 C-40.0275 19.375 -39.3675 19.375 -38.6875 19.375 C-38.42710938 18.78460938 -38.16671875 18.19421875 -37.8984375 17.5859375 C-33.14134952 8.90041558 -22.32259403 4.34997913 -13.421875 1.23046875 C-8.88137818 0.19033402 -4.64370596 -0.00706536 0 0 Z " fill="#4826EB" transform="translate(116.6875,198.625)"/>
<path d="M0 0 C1.32 0 2.64 0 4 0 C4 0.66 4 1.32 4 2 C5.32 2.66 6.64 3.32 8 4 C8 4.66 8 5.32 8 6 C8.53238281 5.68675781 9.06476563 5.37351563 9.61328125 5.05078125 C15.68060666 2.37956924 23.58590624 2.23926908 29.9375 4 C37.09225896 6.90907782 40.32478031 12.97860039 43.23828125 19.7890625 C46.86053787 30.30289453 45.74158189 42.30226522 40.91015625 52.2421875 C39.99655845 53.86130388 39.00706908 55.4373066 38 57 C37.34 57 36.68 57 36 57 C35.62294922 57.90685547 35.62294922 57.90685547 35.23828125 58.83203125 C33.82230513 61.31110615 32.61065432 62.21878123 30.1875 63.6875 C29.52105469 64.10386719 28.85460937 64.52023437 28.16796875 64.94921875 C21.50783313 68.17728448 12.10905796 68.09184145 5.0625 66.125 C-2.74193548 63.25806452 -2.74193548 63.25806452 -4 62 C-4.20317676 57.23316066 -3.9222796 53.01117798 -2.98364258 48.31567383 C0.15328587 32.46372875 -0.24435684 16.09920066 0 0 Z M10 12 C9.91435791 12.94319092 9.82871582 13.88638184 9.74047852 14.8581543 C9.42019021 18.37137752 9.09749755 21.88436289 8.77319336 25.3972168 C8.63356272 26.91503255 8.4948793 28.43293576 8.35717773 29.95092773 C8.1586048 32.13809748 7.9565805 34.32492571 7.75390625 36.51171875 C7.63345947 37.82615967 7.5130127 39.14060059 7.38891602 40.49487305 C7.06762586 43.39051826 6.59061862 46.15246427 6 49 C5.93466565 50.93651019 5.91415697 52.87502861 5.9375 54.8125 C5.94652344 55.78832031 5.95554687 56.76414062 5.96484375 57.76953125 C5.97644531 58.50558594 5.98804688 59.24164063 6 60 C16.69437292 60.60269191 16.69437292 60.60269191 26 56 C26 55.34 26 54.68 26 54 C26.66 54 27.32 54 28 54 C28 53.34 28 52.68 28 52 C28.66 52 29.32 52 30 52 C34.7905301 42.65846631 37.07922009 33.67541884 34.265625 23.2890625 C32.02157215 17.75250587 28.91381377 13.56897665 23.5625 10.6875 C18.40413053 9.30354722 14.82905458 9.94438893 10 12 Z " fill="#352763" transform="translate(274,216)"/>
<path d="M0 0 C2.91513618 0.32390402 5.34781613 0.64235078 7.9375 2.0625 C9.68792519 5.25445183 8.70103567 8.56972996 8 12 C7.13005059 14.76759186 6.03217334 17.4038755 4.875 20.0625 C4.56369141 20.79710449 4.25238281 21.53170898 3.93164062 22.28857422 C0.80096851 29.6097486 -2.57457293 36.8132833 -6 44 C-7.29663564 46.72684429 -8.58715494 49.45649523 -9.875 52.1875 C-10.17341797 52.81156738 -10.47183594 53.43563477 -10.77929688 54.07861328 C-12.19451956 57.07977608 -13.1891423 59.75656921 -14 63 C-18.455 63.495 -18.455 63.495 -23 64 C-25.15715695 58.64594839 -26.58139088 53.69326025 -27.4375 48 C-28.61323577 40.8033849 -30.18526322 33.79106996 -32.02734375 26.73828125 C-32.92353428 23.29388631 -33.746672 19.83906549 -34.5625 16.375 C-35.58180393 12.25297973 -36.93606254 8.73474397 -39 5 C-39 4.34 -39 3.68 -39 3 C-38.34 3 -37.68 3 -37 3 C-37 2.34 -37 1.68 -37 1 C-31.04296875 0.609375 -31.04296875 0.609375 -29 1 C-21.93244154 8.28273003 -21.70946732 22.31946932 -20 32 C-19.71487485 33.60156804 -19.42971797 35.20313043 -19.14453125 36.8046875 C-18.42308788 40.86865148 -17.70954707 44.93394302 -17 49 C-10.03831323 38.55746984 -7.36027571 24.68277609 -3.82324219 12.77197266 C-2.55804771 8.51188424 -1.27840889 4.25613787 0 0 Z " fill="#40326E" transform="translate(227,219)"/>
<path d="M0 0 C1.81599067 0.09274417 3.62874609 0.25086425 5.4375 0.4375 C15.74005942 1.37188996 25.69533386 0.83150044 36 0 C34.25 5.75 34.25 5.75 32 8 C25.72360412 9.92207209 19.5142053 10.21013565 13 10 C13.01160156 10.89203125 13.02320313 11.7840625 13.03515625 12.703125 C13.04417969 13.87359375 13.05320312 15.0440625 13.0625 16.25 C13.07410156 17.41015625 13.08570313 18.5703125 13.09765625 19.765625 C13.01782092 22.40977128 12.78643778 24.49826091 12 27 C14.10409639 27.02701408 16.20829178 27.04640223 18.3125 27.0625 C19.48425781 27.07410156 20.65601563 27.08570313 21.86328125 27.09765625 C25.03059195 27.14899898 25.03059195 27.14899898 28 26 C28.25 32.625 28.25 32.625 26 36 C23.37302936 36.22137393 20.99106036 36.28162025 18.375 36.1875 C17.66859375 36.17396484 16.9621875 36.16042969 16.234375 36.14648438 C14.48925872 36.1111104 12.74453392 36.05730221 11 36 C9.6699897 44.97756951 9.91211961 53.94831966 10 63 C6.73635123 64.06192476 6.17280159 64.07454186 2.8125 62.625 C0 61 0 61 -1 60 C-1.5968537 52.47686736 -0.58958718 45.33764795 1 38 C-0.32 38 -1.64 38 -3 38 C-3.25 35.75 -3.25 35.75 -3 33 C-1.125 30.6875 -1.125 30.6875 1 29 C1.66 29 2.32 29 3 29 C2.98839844 28.21496094 2.97679687 27.42992187 2.96484375 26.62109375 C2.91624493 20.96280225 2.98705251 15.57121122 4 10 C3.360625 9.855625 2.72125 9.71125 2.0625 9.5625 C0 9 0 9 -1 8 C-1.125 4.5 -1.125 4.5 -1 1 C-0.67 0.67 -0.34 0.34 0 0 Z " fill="#281959" transform="translate(398,220)"/>
<path d="M0 0 C6.6 0.6 6.6 0.6 9 3 C10.01185225 8.47106158 9.98593297 13.36001368 9.25 18.875 C9.05969366 20.43226697 8.86960391 21.98956042 8.6796875 23.546875 C8.57237305 24.39958984 8.46505859 25.25230469 8.35449219 26.13085938 C7.65517556 31.79089311 7.02303913 37.45891083 6.375 43.125 C6.1123975 45.39848586 5.84941041 47.67192735 5.5859375 49.9453125 C5.4729834 50.92000488 5.3600293 51.89469727 5.24365234 52.89892578 C5.16324707 53.59228027 5.0828418 54.28563477 5 55 C13.68517024 54.49354466 22.35209459 53.97704701 31 53 C30.47731534 55.76276177 29.89130413 58.3260876 29 61 C25.35695136 63.42869909 22.69277661 63.25675675 18.48828125 63.1953125 C17.76005661 63.1924826 17.03183197 63.18965271 16.28153992 63.18673706 C13.95835863 63.17555257 11.63556453 63.15045166 9.3125 63.125 C7.7363337 63.11496794 6.16016135 63.10584248 4.58398438 63.09765625 C0.72250733 63.07561896 -3.13868071 63.04110141 -7 63 C-7 61.68 -7 60.36 -7 59 C-6.34 59 -5.68 59 -5 59 C-5.02964844 57.88882813 -5.05929687 56.77765625 -5.08984375 55.6328125 C-5.08874331 50.62579693 -4.34207536 45.81095484 -3.5625 40.875 C-1.71275734 28.50531731 -0.85697017 16.38550154 -1.0625 3.88671875 C-1 1 -1 1 0 0 Z " fill="#332462" transform="translate(333,219)"/>
<path d="M0 0 C1.32 0 2.64 0 4 0 C4 0.66 4 1.32 4 2 C5.32 2.66 6.64 3.32 8 4 C8 4.66 8 5.32 8 6 C8.53238281 5.68675781 9.06476563 5.37351563 9.61328125 5.05078125 C15.68060666 2.37956924 23.58590624 2.23926908 29.9375 4 C37.09225896 6.90907782 40.32478031 12.97860039 43.23828125 19.7890625 C44.80799628 24.345261 45.11530748 28.50701912 45.0625 33.3125 C45.05347656 34.38113281 45.04445313 35.44976562 45.03515625 36.55078125 C45.02355469 37.35902344 45.01195312 38.16726562 45 39 C44.67 39 44.34 39 44 39 C43.67 35.7 43.34 32.4 43 29 C41.68 29 40.36 29 39 29 C38.34 29 37.68 29 37 29 C36.67 32.63 36.34 36.26 36 40 C35.67 40 35.34 40 35 40 C34.97421875 39.09378906 34.9484375 38.18757813 34.921875 37.25390625 C34.5132152 28.47700821 33.61485103 21.54771581 28.0625 14.5625 C23.81820147 11.34712232 20.27356096 10.67040244 15 11 C13.33032426 11.31791791 11.66300589 11.64885855 10 12 C10.02320313 12.89203125 10.04640625 13.7840625 10.0703125 14.703125 C10.09738281 16.45882812 10.09738281 16.45882812 10.125 18.25 C10.14820313 19.41015625 10.17140625 20.5703125 10.1953125 21.765625 C10.0103949 24.82786046 9.60823023 26.44202751 8 29 C7.67 28.34 7.34 27.68 7 27 C6.34 27.33 5.68 27.66 5 28 C4.01 27.01 3.02 26.02 2 25 C1.34 25.66 0.68 26.32 0 27 C0 18.09 0 9.18 0 0 Z " fill="#3A2B68" transform="translate(274,216)"/>
<path d="M0 0 C6.7578125 0.75 6.7578125 0.75 8.9375 3 C11.62113638 10.57732624 10.50691758 21.47924727 8 29 C5.73911305 40.98105053 5.77178325 52.85009134 6 65 C1.25 64.125 1.25 64.125 -1 63 C-1 62.34 -1 61.68 -1 61 C-1.66 61 -2.32 61 -3 61 C-5.5585544 51.99348097 -3.59544461 42.12284702 -2.5625 33 C-1.365253 22.0030388 -0.42909811 11.05297547 0 0 Z " fill="#332362" transform="translate(374,219)"/>
<path d="M0 0 C6.4404941 0.48607503 6.4404941 0.48607503 8.91796875 2.76171875 C12.82105417 10.83561024 9.74366421 25.76900738 7 34 C6.54156772 36.90353 6.2546016 39.82796752 5.9375 42.75 C5.84662109 43.53632813 5.75574219 44.32265625 5.66210938 45.1328125 C4.91459649 51.89977126 4.68790834 58.27553023 6 65 C2.66363855 64.71402616 1.04797101 64.03656284 -1.64453125 61.984375 C-4.67939155 58.13921204 -4.68105583 55.12910325 -4.5 50.4375 C-4.48445068 49.60468506 -4.46890137 48.77187012 -4.45288086 47.91381836 C-4.23762958 41.0469812 -3.2907566 34.36343263 -2.14526367 27.59838867 C-0.6308878 18.43924905 -0.28589096 9.2668105 0 0 Z " fill="#362766" transform="translate(248,219)"/>
<path d="M0 0 C0.87688477 -0.00128906 1.75376953 -0.00257813 2.65722656 -0.00390625 C9.83602714 0.11243527 15.73445849 1.38011931 22.3125 4.375 C22.3125 4.705 22.3125 5.035 22.3125 5.375 C15.3825 4.88 15.3825 4.88 8.3125 4.375 C8.3125 3.715 8.3125 3.055 8.3125 2.375 C2.3725 2.705 -3.5675 3.035 -9.6875 3.375 C-9.6875 4.695 -9.6875 6.015 -9.6875 7.375 C-9.0275 7.375 -8.3675 7.375 -7.6875 7.375 C-7.6875 8.035 -7.6875 8.695 -7.6875 9.375 C-8.285625 9.21 -8.88375 9.045 -9.5 8.875 C-11.80094336 8.2635876 -11.80094336 8.2635876 -14.6875 8.375 C-15.450625 8.2925 -16.21375 8.21 -17 8.125 C-20.7966172 8.47817369 -22.74314676 10.00671587 -25.6875 12.375 C-26.1825 13.261875 -26.6775 14.14875 -27.1875 15.0625 C-27.6825 15.825625 -28.1775 16.58875 -28.6875 17.375 C-31.75 18 -31.75 18 -34.6875 18.375 C-35.3475 19.365 -36.0075 20.355 -36.6875 21.375 C-36.3575 22.365 -36.0275 23.355 -35.6875 24.375 C-36.625 27.0625 -36.625 27.0625 -37.6875 29.375 C-38.6775 29.045 -39.6675 28.715 -40.6875 28.375 C-43.16962484 32.98466042 -44.6875 37.10427515 -44.6875 42.375 C-45.3475 43.365 -46.0075 44.355 -46.6875 45.375 C-46.6875 46.695 -46.6875 48.015 -46.6875 49.375 C-47.3475 49.375 -48.0075 49.375 -48.6875 49.375 C-48.501875 50.344375 -48.31625 51.31375 -48.125 52.3125 C-47.46893953 56.75913206 -48.03615134 60.95584983 -48.6875 65.375 C-49.0175 65.375 -49.3475 65.375 -49.6875 65.375 C-52.02770585 50.16366198 -50.93338051 35.05595185 -42.5625 21.75 C-41.94375 20.96625 -41.325 20.1825 -40.6875 19.375 C-40.0275 19.375 -39.3675 19.375 -38.6875 19.375 C-38.42710938 18.78460938 -38.16671875 18.19421875 -37.8984375 17.5859375 C-33.14134952 8.90041558 -22.32259403 4.34997913 -13.421875 1.23046875 C-8.88137818 0.19033402 -4.64370596 -0.00706536 0 0 Z " fill="#7B2BE0" transform="translate(116.6875,198.625)"/>
<path d="M0 0 C2.53125 -0.328125 2.53125 -0.328125 5.5 -0.25 C6.96953125 -0.22679687 6.96953125 -0.22679687 8.46875 -0.203125 C11 0 11 0 13 1 C13 1.99 13 2.98 13 4 C13.66 4.33 14.32 4.66 15 5 C14.67 5.66 14.34 6.32 14 7 C9.05 7 4.1 7 -1 7 C-2.3300103 15.97756951 -2.08788039 24.94831966 -2 34 C-5.26364877 35.06192476 -5.82719841 35.07454186 -9.1875 33.625 C-12 32 -12 32 -13 31 C-13.09938863 29.23146708 -13.12969223 27.45881725 -13.125 25.6875 C-13.12757813 24.72199219 -13.13015625 23.75648438 -13.1328125 22.76171875 C-13 20 -13 20 -12.49609375 18.00390625 C-11.84698462 15.38191426 -11.90539692 12.94665837 -11.9375 10.25 C-11.94652344 9.26515625 -11.95554687 8.2803125 -11.96484375 7.265625 C-11.97644531 6.51796875 -11.98804688 5.7703125 -12 5 C-5.375 3 -5.375 3 -2 3 C-1.34 2.01 -0.68 1.02 0 0 Z " fill="#2A1B5C" transform="translate(410,249)"/>
<path d="M0 0 C0.33 0 0.66 0 1 0 C1 6.27 1 12.54 1 19 C14.01884597 18.23098995 14.01884597 18.23098995 27 17 C26.47731534 19.76276177 25.89130413 22.3260876 25 25 C21.35695136 27.42869909 18.69277661 27.25675675 14.48828125 27.1953125 C13.76005661 27.1924826 13.03183197 27.18965271 12.28153992 27.18673706 C9.95835863 27.17555257 7.63556453 27.15045166 5.3125 27.125 C3.7363337 27.11496794 2.16016135 27.10584248 0.58398438 27.09765625 C-3.27749267 27.07561896 -7.13868071 27.04110141 -11 27 C-11 25.68 -11 24.36 -11 23 C-9.68 22.67 -8.36 22.34 -7 22 C-6.67 17.05 -6.34 12.1 -6 7 C-3 6 -3 6 -1 6 C-0.67 4.02 -0.34 2.04 0 0 Z " fill="#2A1B5B" transform="translate(337,255)"/>
<path d="M0 0 C6.38155144 -0.40733307 12.64617264 0.26203032 17.765625 4.44140625 C24.48925689 11.75929853 27.16997689 20.53210264 27.0625 30.3125 C27.05347656 31.38113281 27.04445313 32.44976562 27.03515625 33.55078125 C27.02355469 34.35902344 27.01195312 35.16726562 27 36 C26.67 36 26.34 36 26 36 C25.505 31.05 25.505 31.05 25 26 C23.68 26 22.36 26 21 26 C20.34 26 19.68 26 19 26 C18.67 29.63 18.34 33.26 18 37 C17.67 37 17.34 37 17 37 C16.97421875 36.09378906 16.9484375 35.18757813 16.921875 34.25390625 C16.5132152 25.47700821 15.61485103 18.54771581 10.0625 11.5625 C7.80429596 9.85173936 5.68019981 8.89339994 3 8 C3.61875 7.731875 4.2375 7.46375 4.875 7.1875 C7.2995233 6.04443152 7.2995233 6.04443152 9 3 C4.545 2.01 4.545 2.01 0 1 C0 0.67 0 0.34 0 0 Z " fill="#403071" transform="translate(292,219)"/>
<path d="M0 0 C1.65 0.99 3.3 1.98 5 3 C5.66 2.34 6.32 1.68 7 1 C8.05127047 5.14231948 7.96374689 8.75193084 7.625 13 C7.53476562 14.19625 7.44453125 15.3925 7.3515625 16.625 C7.05425667 19.47913601 6.62517075 22.20262579 6 25 C5.34 25 4.68 25 4 25 C4 27.97 4 30.94 4 34 C1 35 1 35 -3 35 C-3.33226162 22.87860382 -3.0017658 11.79265137 0 0 Z " fill="#332262" transform="translate(275,240)"/>
<path d="M0 0 C2.3652115 1.9428523 2.99406337 3.48247498 3.75 6.4375 C3.375 9.25 3.375 9.25 2.75 11.4375 C3.41 11.7675 4.07 12.0975 4.75 12.4375 C4.585 13.05882812 4.42 13.68015625 4.25 14.3203125 C3.41781243 19.50848187 3.71163476 24.71517311 3.7890625 29.95703125 C3.83374313 34.90913416 3.60122472 39.55625822 2.75 44.4375 C5.225 43.9425 5.225 43.9425 7.75 43.4375 C7.75 44.4275 7.75 45.4175 7.75 46.4375 C8.35996826 46.43226318 8.96993652 46.42702637 9.59838867 46.42163086 C12.37808185 46.40076665 15.15775851 46.38780987 17.9375 46.375 C18.89720703 46.36662109 19.85691406 46.35824219 20.84570312 46.34960938 C21.77705078 46.34638672 22.70839844 46.34316406 23.66796875 46.33984375 C24.52156982 46.33460693 25.3751709 46.32937012 26.25463867 46.32397461 C28.84246747 46.44170677 31.22661953 46.86642956 33.75 47.4375 C33.75 47.7675 33.75 48.0975 33.75 48.4375 C22.86 48.4375 11.97 48.4375 0.75 48.4375 C0.42 34.2475 0.09 20.0575 -0.25 5.4375 C-1.24 5.1075 -2.23 4.7775 -3.25 4.4375 C-3.58 5.7575 -3.91 7.0775 -4.25 8.4375 C-4.353125 7.798125 -4.45625 7.15875 -4.5625 6.5 C-4.789375 5.819375 -5.01625 5.13875 -5.25 4.4375 C-6.24 4.1075 -7.23 3.7775 -8.25 3.4375 C-8.25 2.7775 -8.25 2.1175 -8.25 1.4375 C-2.93965517 -0.73491379 -2.93965517 -0.73491379 0 0 Z " fill="#6953DE" transform="translate(99.25,218.5625)"/>
<path d="M0 0 C-0.00523682 0.60473145 -0.01047363 1.20946289 -0.01586914 1.83251953 C-0.03677358 4.59666894 -0.04970279 7.36080165 -0.0625 10.125 C-0.07087891 11.07632812 -0.07925781 12.02765625 -0.08789062 13.0078125 C-0.10449608 17.79018487 -0.00537055 22.29771569 1 27 C-2.28661985 26.71828973 -3.96625876 26.02461126 -6.65625 24.0625 C-9.94826669 19.76093152 -9.56711797 16.44046463 -9.3125 11.1875 C-9.28994141 10.30384766 -9.26738281 9.42019531 -9.24414062 8.50976562 C-9.18547428 6.3391109 -9.09579979 4.1693331 -9 2 C-3.375 0 -3.375 0 0 0 Z " fill="#30215F" transform="translate(253,257)"/>
<path d="M0 0 C5.29637669 -0.34730339 5.29637669 -0.34730339 8 0 C10.88717957 2.70090992 11.88613427 5.58543732 12.203125 9.5234375 C12.36299669 19.24896523 12.36299669 19.24896523 9 23 C8.34 23 7.68 23 7 23 C7 21.35 7 19.7 7 18 C6.01 18 5.02 18 4 18 C3.18667257 15.89615302 2.37436583 13.79191143 1.5625 11.6875 C1.11003906 10.51574219 0.65757812 9.34398437 0.19140625 8.13671875 C-0.57984755 6.10617185 -1.31312642 4.06062074 -2 2 C-1.34 2 -0.68 2 0 2 C0 1.34 0 0.68 0 0 Z " fill="#261659" transform="translate(190,220)"/>
<path d="M0 0 C1.32 0.33 2.64 0.66 4 1 C3.01 1 2.02 1 1 1 C1 11.23 1 21.46 1 32 C11.89 32 22.78 32 34 32 C34 30.68 34 29.36 34 28 C24.76 28 15.52 28 6 28 C4.875 19 4.875 19 7 14 C8 16 8 16 8 26 C16.91 26 25.82 26 35 26 C35 28.64 35 31.28 35 34 C31.24118909 35.2294789 27.75312113 35.0236807 23.828125 34.87890625 C22.5793457 34.83580322 21.33056641 34.7927002 20.04394531 34.74829102 C18.46194336 34.68697998 16.87994141 34.62566895 15.25 34.5625 C10.2175 34.376875 5.185 34.19125 0 34 C0 22.78 0 11.56 0 0 Z " fill="#857FE5" transform="translate(113,221)"/>
<path d="M0 0 C2.475 0.99 2.475 0.99 5 2 C5.58002026 18.6916941 5.58002026 18.6916941 2 24 C-0.6875 25.4375 -0.6875 25.4375 -3 26 C-2.98839844 25.39671875 -2.97679687 24.7934375 -2.96484375 24.171875 C-2.95582031 23.37265625 -2.94679688 22.5734375 -2.9375 21.75 C-2.92589844 20.96109375 -2.91429687 20.1721875 -2.90234375 19.359375 C-2.90798362 17.04958531 -2.90798362 17.04958531 -3.53125 15.09375 C-4.17490222 12.2187701 -3.84852603 9.67382169 -3.5625 6.75 C-3.46066406 5.67234375 -3.35882813 4.5946875 -3.25390625 3.484375 C-3.17011719 2.66453125 -3.08632813 1.8446875 -3 1 C-2.01 1.33 -1.02 1.66 0 2 C0 1.34 0 0.68 0 0 Z " fill="#2A1A5A" transform="translate(313,243)"/>
<path d="M0 0 C1.9375 0.75 1.9375 0.75 4 2 C4.75 4.125 4.75 4.125 5 6 C5.99 5.67 6.98 5.34 8 5 C8.99 5.66 9.98 6.32 11 7 C10.44894091 10.9492568 9.61064629 14.34920174 8 18 C5.03 18.33 2.06 18.66 -1 19 C-1.22171552 16.39634072 -1.42784859 13.79303507 -1.625 11.1875 C-1.68945312 10.44951172 -1.75390625 9.71152344 -1.8203125 8.95117188 C-2.2265625 3.33984375 -2.2265625 3.33984375 0 0 Z " fill="#2E1F5D" transform="translate(205,264)"/>
<path d="M0 0 C2 2 2 2 2 6 C1.02149805 7.02104551 0.02019573 8.0206121 -1 9 C-1.71447643 11.10332891 -1.71447643 11.10332891 -2 13 C-1.01 13.33 -0.02 13.66 1 14 C1.33 13.01 1.66 12.02 2 11 C2.99 10.67 3.98 10.34 5 10 C3.63672799 15.29472815 1.74910341 20.02040372 -0.625 24.9375 C-1.11226562 25.96327148 -1.11226562 25.96327148 -1.609375 27.00976562 C-2.40145594 28.67546525 -3.2000474 30.3380664 -4 32 C-5.98 31.34 -7.96 30.68 -10 30 C-8.40556914 23.74666476 -6.5962711 17.91949812 -4 12 C-2.61218405 8.01757162 -1.29797291 4.01251523 0 0 Z " fill="#493C76" transform="translate(221,240)"/>
<path d="M0 0 C3 3.75 3 3.75 3 6 C3.66 6 4.32 6 5 6 C5 12.6 5 19.2 5 26 C3.35 25.67 1.7 25.34 0 25 C0 24.34 0 23.68 0 23 C-0.66 23 -1.32 23 -2 23 C-2.88327729 19.9473937 -3.1633007 17.17494823 -3.1875 14 C-3.20167969 13.154375 -3.21585937 12.30875 -3.23046875 11.4375 C-2.98288137 8.81894871 -2.26013512 7.28070083 -1 5 C-0.62331656 3.34259285 -0.27942455 1.67654729 0 0 Z " fill="#211153" transform="translate(373,257)"/>
<path d="M0 0 C0.33 0 0.66 0 1 0 C1 1.98 1 3.96 1 6 C1.99 6.33 2.98 6.66 4 7 C3.67 7.99 3.34 8.98 3 10 C4.65 9.67 6.3 9.34 8 9 C8.33 8.01 8.66 7.02 9 6 C9 7.32 9 8.64 9 10 C11.10409639 10.02701408 13.20829178 10.04640223 15.3125 10.0625 C17.07013672 10.07990234 17.07013672 10.07990234 18.86328125 10.09765625 C22.03059195 10.14899898 22.03059195 10.14899898 25 9 C25 11.31 25 13.62 25 16 C24.01 16 23.02 16 22 16 C22 15.01 22 14.02 22 13 C17.71 13 13.42 13 9 13 C9 13.99 9 14.98 9 16 C7.34385343 16.38218767 5.67542976 16.71395102 4 17 C3.67 16.67 3.34 16.34 3 16 C0.47608101 16.25475806 0.47608101 16.25475806 -2 17 C-2.33 17.66 -2.66 18.32 -3 19 C-2.34 19.33 -1.68 19.66 -1 20 C-2.65 20.33 -4.3 20.66 -6 21 C-6.25 18.75 -6.25 18.75 -6 16 C-4.125 13.6875 -4.125 13.6875 -2 12 C-1.34 12 -0.68 12 0 12 C0 8.04 0 4.08 0 0 Z " fill="#312061" transform="translate(401,237)"/>
<path d="M0 0 C0 0.33 0 0.66 0 1 C-6.93 0.505 -6.93 0.505 -14 0 C-14 -0.66 -14 -1.32 -14 -2 C-19.94 -1.67 -25.88 -1.34 -32 -1 C-32 0.32 -32 1.64 -32 3 C-31.34 3 -30.68 3 -30 3 C-30 3.66 -30 4.32 -30 5 C-30.598125 4.835 -31.19625 4.67 -31.8125 4.5 C-34.11344336 3.8885876 -34.11344336 3.8885876 -37 4 C-38.2065625 3.9690625 -38.2065625 3.9690625 -39.4375 3.9375 C-41.80763007 3.99530805 -43.73747091 4.32962101 -46 5 C-46 4.34 -46 3.68 -46 3 C-45.34 3 -44.68 3 -44 3 C-44 2.01 -44 1.02 -44 0 C-30.19956553 -6.28312464 -13.80043447 -6.28312464 0 0 Z " fill="#5824D9" transform="translate(139,203)"/>
<path d="M0 0 C-1.75 5.75 -1.75 5.75 -4 8 C-9.60447207 9.65982537 -15.18187229 10.25296207 -21 10 C-21 9.67 -21 9.34 -21 9 C-20.01 8.67 -19.02 8.34 -18 8 C-18.66 7.01 -19.32 6.02 -20 5 C-13.58780732 0.15175675 -7.99986607 -0.16326257 0 0 Z " fill="#352666" transform="translate(434,220)"/>
<path d="M0 0 C1.65 0.99 3.3 1.98 5 3 C5.66 2.34 6.32 1.68 7 1 C8.13673517 5.22102362 7.79839993 8.52696509 7.0625 12.8125 C6.86785156 13.97394531 6.67320312 15.13539063 6.47265625 16.33203125 C6.23869141 17.65267578 6.23869141 17.65267578 6 19 C3.69 19 1.38 19 -1 19 C-0.814375 18.360625 -0.62875 17.72125 -0.4375 17.0625 C-0.293125 16.381875 -0.14875 15.70125 0 15 C-0.33 14.67 -0.66 14.34 -1 14 C-1.09908783 12.21059028 -1.12970379 10.41714492 -1.125 8.625 C-1.12757813 7.64789063 -1.13015625 6.67078125 -1.1328125 5.6640625 C-1 3 -1 3 0 0 Z " fill="#231356" transform="translate(275,240)"/>
<path d="M0 0 C0.99 0.33 1.98 0.66 3 1 C2.67 1.66 2.34 2.32 2 3 C3.32 2.67 4.64 2.34 6 2 C5.67 3.32 5.34 4.64 5 6 C4.34 6 3.68 6 3 6 C2.74734375 6.74121094 2.4946875 7.48242188 2.234375 8.24609375 C-0.54465865 14.446153 -7.03368742 19.9533723 -13 23 C-16.875 23.25 -16.875 23.25 -20 23 C-20 22.34 -20 21.68 -20 21 C-19.34 20.67 -18.68 20.34 -18 20 C-17.67 19.01 -17.34 18.02 -17 17 C-16.236875 17.103125 -15.47375 17.20625 -14.6875 17.3125 C-13.800625 17.209375 -12.91375 17.10625 -12 17 C-10.1375562 14.59141286 -10.1375562 14.59141286 -9 12 C-8.67 12.66 -8.34 13.32 -8 14 C-6.68 13.67 -5.36 13.34 -4 13 C-4 12.34 -4 11.68 -4 11 C-3.01 11 -2.02 11 -1 11 C-1.020625 9.741875 -1.04125 8.48375 -1.0625 7.1875 C-1.10886083 4.35948913 -0.91692961 2.75078884 0 0 Z " fill="#2F4EE8" transform="translate(156,272)"/>
<path d="M0 0 C0.67546875 0.20496094 1.3509375 0.40992188 2.046875 0.62109375 C2.93890625 0.89050781 3.8309375 1.15992188 4.75 1.4375 C5.63171875 1.70433594 6.5134375 1.97117187 7.421875 2.24609375 C9.60565835 2.88468494 11.78835498 3.46775833 14 4 C14 4.66 14 5.32 14 6 C15.010625 5.979375 16.02125 5.95875 17.0625 5.9375 C20.81017715 5.99698694 24.29715484 6.46140434 28 7 C32.8144846 7.30120226 32.8144846 7.30120226 37 5 C37 5.66 37 6.32 37 7 C38.093125 6.79375 39.18625 6.5875 40.3125 6.375 C44 6 44 6 47 8 C33.11087671 11.92348115 18.38657227 11.42182224 5.42578125 4.65625 C3.1875 3.3125 3.1875 3.3125 0 1 C0 0.67 0 0.34 0 0 Z " fill="#444EDA" transform="translate(87,291)"/>
<path d="M0 0 C2.31 0 4.62 0 7 0 C7 0.99 7 1.98 7 3 C6.34 3 5.68 3 5 3 C5.061875 4.051875 5.12375 5.10375 5.1875 6.1875 C4.99060011 10.19113117 4.46197207 11.89973887 2 15 C1.01 15.33 0.02 15.66 -1 16 C-1.73323796 18.01508358 -1.73323796 18.01508358 -2 20 C-2.99 19.34 -3.98 18.68 -5 18 C-4.67 16.02 -4.34 14.04 -4 12 C-3.01 11.67 -2.02 11.34 -1 11 C-1.20625 9.9275 -1.4125 8.855 -1.625 7.75 C-1.9876191 4.12380904 -1.98362069 2.91708924 0 0 Z " fill="#302061" transform="translate(224,235)"/>
<path d="M0 0 C0.66 0 1.32 0 2 0 C2.33 2.31 2.66 4.62 3 7 C5.97 7.495 5.97 7.495 9 8 C9 8.99 9 9.98 9 11 C9.66 10.34 10.32 9.68 11 9 C11.99 9.66 12.98 10.32 14 11 C13.67 11.66 13.34 12.32 13 13 C14.65 13.33 16.3 13.66 18 14 C18 14.66 18 15.32 18 16 C18.66 16.33 19.32 16.66 20 17 C15.25 18 15.25 18 13 18 C12.67 18.66 12.34 19.32 12 20 C12.99 20.33 13.98 20.66 15 21 C14.34 21.66 13.68 22.32 13 23 C11.5 21.625 11.5 21.625 10 20 C10 19.34 10 18.68 10 18 C9.34 18 8.68 18 8 18 C6.30859375 15.5859375 6.30859375 15.5859375 4.4375 12.375 C3.50744141 10.80878906 3.50744141 10.80878906 2.55859375 9.2109375 C1.02317041 6.04773453 0.38093911 3.47541705 0 0 Z " fill="#5920E6" transform="translate(68,264)"/>
<path d="M0 0 C1.54300781 0.02320313 1.54300781 0.02320313 3.1171875 0.046875 C5.87564808 0.23316065 8.43360236 0.63425589 11.125 1.25 C10.02681099 4.54456702 9.21496146 5.70501927 6.125 7.25 C3.88185289 7.3192864 1.65718515 7.24751666 -0.5859375 7.1875 C-2.83696841 7.24896159 -4.72041855 7.62035063 -6.875 8.25 C-7.535 6.6 -8.195 4.95 -8.875 3.25 C-6.26745743 -0.16677992 -4.16046605 -0.10375227 0 0 Z " fill="#362963" transform="translate(291.875,219.75)"/>
<path d="M0 0 C2.81484045 2.81484045 2.62757042 5.2166247 3.125 9.125 C3.29257813 10.40632812 3.46015625 11.68765625 3.6328125 13.0078125 C3.81457031 14.48894531 3.81457031 14.48894531 4 16 C2.68 16 1.36 16 0 16 C-0.33 16.66 -0.66 17.32 -1 18 C-1.66 16.68 -2.32 15.36 -3 14 C-3 15.32 -3 16.64 -3 18 C-3.99 18 -4.98 18 -6 18 C-6.33872513 16.58461283 -6.67074624 15.16762037 -7 13.75 C-7.185625 12.96109375 -7.37125 12.1721875 -7.5625 11.359375 C-8 9 -8 9 -8 5 C-7.01 5 -6.02 5 -5 5 C-5 6.65 -5 8.3 -5 10 C-4.34 10 -3.68 10 -3 10 C-2.01 6.7 -1.02 3.4 0 0 Z " fill="#43356F" transform="translate(202,233)"/>
<path d="M0 0 C0.33 0 0.66 0 1 0 C1 3.63 1 7.26 1 11 C4.3 11 7.6 11 11 11 C11 11.33 11 11.66 11 12 C9.02 12 7.04 12 5 12 C3.7763932 14.0745356 3.7763932 14.0745356 4 17 C-0.87722688 17.34837335 -3.78437652 16.45094389 -8 14 C-9 13 -9 13 -9.1875 9.1875 C-9.1585691 5.96459799 -8.82970185 3.74455277 -7 1 C-6.15545644 4.37817425 -5.89155081 6.67465243 -7 10 C-5.02 9.67 -3.04 9.34 -1 9 C-0.67 6.03 -0.34 3.06 0 0 Z " fill="#46396F" transform="translate(279,265)"/>
<path d="M0 0 C1.98 0 3.96 0 6 0 C6 1.32 6 2.64 6 4 C5.67 4.33 5.34 4.66 5 5 C3.35 5 1.7 5 0 5 C0 15.56 0 26.12 0 37 C-0.66 36.67 -1.32 36.34 -2 36 C-2.04951788 31.5159659 -2.08577526 27.03207761 -2.10986328 22.54785156 C-2.11990744 21.02308377 -2.13354531 19.49833516 -2.15087891 17.97363281 C-2.17519738 15.77924862 -2.18649889 13.58511958 -2.1953125 11.390625 C-2.20578613 10.07094727 -2.21625977 8.75126953 -2.22705078 7.39160156 C-2.0179275 4.26779441 -1.66605136 2.59419762 0 0 Z " fill="#4B2AD0" transform="translate(113,216)"/>
<path d="M0 0 C2.3652115 1.9428523 2.99406337 3.48247498 3.75 6.4375 C3.375 9.25 3.375 9.25 2.75 11.4375 C3.41 11.7675 4.07 12.0975 4.75 12.4375 C4.58701416 13.16219482 4.42402832 13.88688965 4.25610352 14.63354492 C3.7800967 17.27075585 3.63509634 19.62743341 3.65234375 22.30078125 C3.65556641 23.18701172 3.65878906 24.07324219 3.66210938 24.98632812 C3.67048828 25.89833984 3.67886719 26.81035156 3.6875 27.75 C3.69201172 28.68134766 3.69652344 29.61269531 3.70117188 30.57226562 C3.71290766 32.86074373 3.72932637 35.14908808 3.75 37.4375 C3.42 37.4375 3.09 37.4375 2.75 37.4375 C2.6998877 36.57471436 2.64977539 35.71192871 2.59814453 34.82299805 C2.40775057 31.61889644 2.2092946 28.41542496 2.00537109 25.2121582 C1.91880491 23.82628865 1.83544504 22.4402149 1.75537109 21.05395508 C1.63964618 19.06020049 1.51139101 17.06718568 1.3828125 15.07421875 C1.30949707 13.87498779 1.23618164 12.67575684 1.16064453 11.44018555 C0.94875825 8.26239021 0.94875825 8.26239021 -1.25 5.4375 C-1.91 5.1075 -2.57 4.7775 -3.25 4.4375 C-3.58 5.7575 -3.91 7.0775 -4.25 8.4375 C-4.353125 7.798125 -4.45625 7.15875 -4.5625 6.5 C-4.789375 5.819375 -5.01625 5.13875 -5.25 4.4375 C-6.24 4.1075 -7.23 3.7775 -8.25 3.4375 C-8.25 2.7775 -8.25 2.1175 -8.25 1.4375 C-2.93965517 -0.73491379 -2.93965517 -0.73491379 0 0 Z " fill="#5423E0" transform="translate(99.25,218.5625)"/>
<path d="M0 0 C1.79158489 -0.02696365 3.58328473 -0.04637917 5.375 -0.0625 C6.37273437 -0.07410156 7.37046875 -0.08570313 8.3984375 -0.09765625 C11 0 11 0 13 1 C13 1.99 13 2.98 13 4 C13.66 4.33 14.32 4.66 15 5 C13.06658053 6.93341947 9.62520879 6.17449133 7.0625 6.1875 C5.79535156 6.20167969 4.52820313 6.21585938 3.22265625 6.23046875 C0 6 0 6 -2 4 C-1.34 2.68 -0.68 1.36 0 0 Z " fill="#201153" transform="translate(410,249)"/>
<path d="M0 0 C2.10633718 1.70828921 2.93801608 2.52148416 3.29296875 5.26171875 C3.25816406 6.06222656 3.22335937 6.86273438 3.1875 7.6875 C3.16042969 8.49574219 3.13335937 9.30398438 3.10546875 10.13671875 C3.07066406 10.75160156 3.03585937 11.36648438 3 12 C3.99 11.67 4.98 11.34 6 11 C5.49396008 13.16874252 5.00016187 14.99967627 4 17 C3.34 17 2.68 17 2 17 C1.34 18.32 0.68 19.64 0 21 C-0.33 21 -0.66 21 -1 21 C-1 17.66666667 -1 14.33333333 -1 11 C-1.99 11 -2.98 11 -4 11 C-2.7874262 7.27566618 -1.49140021 3.62197194 0 0 Z " fill="#372A66" transform="translate(308,256)"/>
<path d="M0 0 C5.93002267 -0.37851209 10.47239641 0.89424625 16 3 C16 3.99 16 4.98 16 6 C15.34 6 14.68 6 14 6 C13.67 6.99 13.34 7.98 13 9 C13.66 9.33 14.32 9.66 15 10 C15 10.99 15 11.98 15 13 C14.01 13.33 13.02 13.66 12 14 C11.443125 13.38125 10.88625 12.7625 10.3125 12.125 C7.93354822 9.93893621 6.03642904 9.01214301 3 8 C3.61875 7.731875 4.2375 7.46375 4.875 7.1875 C7.2995233 6.04443152 7.2995233 6.04443152 9 3 C4.545 2.01 4.545 2.01 0 1 C0 0.67 0 0.34 0 0 Z " fill="#493472" transform="translate(292,219)"/>
<path d="M0 0 C3.8718417 1.25573244 6.02838671 2.36808079 8 6 C8.1875 8.75 8.1875 8.75 8 11 C2.375 12.125 2.375 12.125 -1 11 C-0.814375 10.2575 -0.62875 9.515 -0.4375 8.75 C-0.00158134 6.00993984 -0.28005547 4.60979891 -1 2 C-0.67 1.34 -0.34 0.68 0 0 Z " fill="#2D1E5E" transform="translate(306,223)"/>
<path d="M0 0 C1.85776765 3.13498292 2.20140476 5.37471432 2 9 C0.68 9 -0.64 9 -2 9 C-3.06723961 12.46222615 -3.10173486 15.64039266 -3.0625 19.25 C-3.04896484 20.86648438 -3.04896484 20.86648438 -3.03515625 22.515625 C-3.02355469 23.33546875 -3.01195312 24.1553125 -3 25 C-3.33 25 -3.66 25 -4 25 C-4.53181175 22.75256955 -5.05007126 20.50192898 -5.5625 18.25 C-5.99755859 16.37054688 -5.99755859 16.37054688 -6.44140625 14.453125 C-7.22192982 9.62807018 -7.22192982 9.62807018 -6 7 C-3 5 -3 5 0 5 C0 3.35 0 1.7 0 0 Z " fill="#54467E" transform="translate(207,257)"/>
<path d="M0 0 C2 2 2 2 2 6 C1.02149805 7.02104551 0.02019573 8.0206121 -1 9 C-1.71447643 11.10332891 -1.71447643 11.10332891 -2 13 C-1.01 13.33 -0.02 13.66 1 14 C1.33 13.01 1.66 12.02 2 11 C2.99 10.67 3.98 10.34 5 10 C4.1875 13.4375 4.1875 13.4375 3 17 C2.01 17.33 1.02 17.66 0 18 C-0.66 18.66 -1.32 19.32 -2 20 C-4.50411413 16.2438288 -4.06898772 14.72051837 -3.4921875 10.4296875 C-2.74570504 6.7446709 -1.44931312 3.46574876 0 0 Z " fill="#3C2E69" transform="translate(221,240)"/>
<path d="M0 0 C0.66 2.64 1.32 5.28 2 8 C0.68 8.33 -0.64 8.66 -2 9 C-2.99 10.485 -2.99 10.485 -4 12 C-4.66 11.67 -5.32 11.34 -6 11 C-5.67 7.7 -5.34 4.4 -5 1 C-5.99 0.67 -6.98 0.34 -8 0 C-5.13822943 -1.43088528 -3.06624227 -0.59991697 0 0 Z " fill="#1B38EA" transform="translate(150,264)"/>
<path d="M0 0 C0.33 0 0.66 0 1 0 C1.10349817 6.41688675 0.74507544 12.62694402 0 19 C-2 18 -2 18 -3.125 14.9375 C-3.41375 13.968125 -3.7025 12.99875 -4 12 C-4.99 12.495 -4.99 12.495 -6 13 C-6 11.02 -6 9.04 -6 7 C-3 6 -3 6 -1 6 C-0.67 4.02 -0.34 2.04 0 0 Z " fill="#201052" transform="translate(337,255)"/>
<path d="M0 0 C0.89493164 -0.00128906 1.78986328 -0.00257813 2.71191406 -0.00390625 C9.97437662 0.11141253 15.90744289 1.3450553 22.5625 4.375 C22.5625 4.705 22.5625 5.035 22.5625 5.375 C15.6325 4.88 15.6325 4.88 8.5625 4.375 C8.5625 3.715 8.5625 3.055 8.5625 2.375 C1.6325 2.375 -5.2975 2.375 -12.4375 2.375 C-8.28407055 -0.39395297 -4.88714599 -0.00715279 0 0 Z " fill="#755CD6" transform="translate(116.4375,198.625)"/>
<path d="M0 0 C-0.52268466 2.76276177 -1.10869587 5.3260876 -2 8 C-4.0625 9.1875 -4.0625 9.1875 -6 10 C-7.125 6.25 -7.125 6.25 -6 4 C-6.99 3.67 -7.98 3.34 -9 3 C-9.33 2.34 -9.66 1.68 -10 1 C-6.61981469 -0.04005702 -3.5219721 -0.08004482 0 0 Z " fill="#3C3066" transform="translate(364,272)"/>
<path d="M0 0 C0.67546875 0.20496094 1.3509375 0.40992188 2.046875 0.62109375 C2.93890625 0.89050781 3.8309375 1.15992188 4.75 1.4375 C5.63171875 1.70433594 6.5134375 1.97117187 7.421875 2.24609375 C9.60565835 2.88468494 11.78835498 3.46775833 14 4 C14 4.66 14 5.32 14 6 C15.11375 5.95875 16.2275 5.9175 17.375 5.875 C21 6 21 6 23 8 C18.03402637 9.22273973 15.09694628 8.69796099 10.375 6.8125 C8.71597656 6.17248047 8.71597656 6.17248047 7.0234375 5.51953125 C4.02558078 4.01285649 2.19846399 2.50410411 0 0 Z " fill="#554CDE" transform="translate(87,291)"/>
<path d="M0 0 C2.31 0 4.62 0 7 0 C7 0.99 7 1.98 7 3 C6.34 3 5.68 3 5 3 C5 4.65 5 6.3 5 8 C3.02 8 1.04 8 -1 8 C-1.93065133 5.39417629 -2.14917407 4.35801776 -1.0625 1.75 C-0.711875 1.1725 -0.36125 0.595 0 0 Z " fill="#201051" transform="translate(224,235)"/>
<path d="M0 0 C7.83082496 9.8269176 6.33732368 22.11582711 6 34 C5.67 34 5.34 34 5 34 C4.96261719 32.68644531 4.92523438 31.37289063 4.88671875 30.01953125 C4.82104343 28.28382636 4.75459663 26.54815053 4.6875 24.8125 C4.66494141 23.94818359 4.64238281 23.08386719 4.61914062 22.19335938 C4.4082991 17.19066501 3.85786148 14.22725343 1 10 C0.48828125 7.32421875 0.48828125 7.32421875 0.3125 4.6875 C0.24675781 3.80449219 0.18101562 2.92148438 0.11328125 2.01171875 C0.07589844 1.34785156 0.03851563 0.68398437 0 0 Z " fill="#7481EA" transform="translate(162,226)"/>
<path d="M0 0 C-1.75 5.75 -1.75 5.75 -4 8 C-6.125 7.625 -6.125 7.625 -8 7 C-7.01 7 -6.02 7 -5 7 C-7.48952921 4.33264727 -9.63408134 2.44253657 -13 1 C-8.60563789 0.14256349 -4.47427924 -0.08948558 0 0 Z " fill="#4F4379" transform="translate(434,220)"/>
<path d="M0 0 C3.3 0 6.6 0 10 0 C8.90181099 3.29456702 8.08996146 4.45501927 5 6 C3.45386986 5.91348369 1.91090613 5.75997364 0.375 5.5625 C-0.85089844 5.40974609 -0.85089844 5.40974609 -2.1015625 5.25390625 C-3.04128906 5.12822266 -3.04128906 5.12822266 -4 5 C-3.34 4.67 -2.68 4.34 -2 4 C-1.34 2.68 -0.68 1.36 0 0 Z " fill="#261657" transform="translate(293,221)"/>
<path d="M0 0 C5.75 0.75 5.75 0.75 8 3 C7.625 5.125 7.625 5.125 7 7 C5.1875 7.6875 5.1875 7.6875 3 8 C1.25 6.875 1.25 6.875 0 5 C-0.1875 2.3125 -0.1875 2.3125 0 0 Z " fill="#2E1F5B" transform="translate(227,219)"/>
<path d="M0 0 C1.23556641 0.01740234 1.23556641 0.01740234 2.49609375 0.03515625 C3.32238281 0.04417969 4.14867187 0.05320313 5 0.0625 C5.63808594 0.07410156 6.27617187 0.08570313 6.93359375 0.09765625 C5.94359375 1.27328125 5.94359375 1.27328125 4.93359375 2.47265625 C2.73157934 4.81278437 2.73157934 4.81278437 2.93359375 7.09765625 C1.28359375 7.09765625 -0.36640625 7.09765625 -2.06640625 7.09765625 C-2.44773924 5.10625065 -2.77966207 3.10486548 -3.06640625 1.09765625 C-2.06640625 0.09765625 -2.06640625 0.09765625 0 0 Z " fill="#1F1051" transform="translate(401.06640625,221.90234375)"/>
<path d="M0 0 C0.33 0 0.66 0 1 0 C1.33 3.3 1.66 6.6 2 10 C4.91634129 10.2502157 4.91634129 10.2502157 8 10 C8.66 9.01 9.32 8.02 10 7 C10.33 9.31 10.66 11.62 11 14 C9.375 14.6875 9.375 14.6875 7 15 C1.72413793 12.72413793 1.72413793 12.72413793 0 11 C-0.07226502 9.14712498 -0.0838122 7.29166122 -0.0625 5.4375 C-0.05347656 4.42558594 -0.04445313 3.41367187 -0.03515625 2.37109375 C-0.02355469 1.58863281 -0.01195312 0.80617188 0 0 Z " fill="#554C7E" transform="translate(397,269)"/>
<path d="M0 0 C0.268125 0.639375 0.53625 1.27875 0.8125 1.9375 C1.88667752 4.33131686 1.88667752 4.33131686 5 5 C3.75 7.9375 3.75 7.9375 2 11 C-0.109375 11.69140625 -0.109375 11.69140625 -2 12 C-1.85831863 10.56208484 -1.71148957 9.1246763 -1.5625 7.6875 C-1.48128906 6.88699219 -1.40007812 6.08648437 -1.31640625 5.26171875 C-1 3 -1 3 0 0 Z " fill="#3C2F6B" transform="translate(226,222)"/>
<path d="M0 0 C2.64 0 5.28 0 8 0 C8 1.32 8 2.64 8 4 C4.3558226 6.4294516 2.28758728 6.16179575 -2 6 C-2 5.34 -2 4.68 -2 4 C-1.34 3.67 -0.68 3.34 0 3 C0 2.01 0 1.02 0 0 Z " fill="#2946E3" transform="translate(138,289)"/>
<path d="M0 0 C1.61949011 2.57213134 2.04408751 3.67669159 1.625 6.75 C1.41875 7.4925 1.2125 8.235 1 9 C0.01 9 -0.98 9 -2 9 C-2 9.66 -2 10.32 -2 11 C-3.32 11.33 -4.64 11.66 -6 12 C-5.67 10.35 -5.34 8.7 -5 7 C-4.01 6.67 -3.02 6.34 -2 6 C-1.32843384 4.06381575 -1.32843384 4.06381575 -1 2 C-0.67 1.34 -0.34 0.68 0 0 Z " fill="#1336F0" transform="translate(154,274)"/>
<path d="M0 0 C0.99 0 1.98 0 3 0 C3 0.66 3 1.32 3 2 C3.66 2.33 4.32 2.66 5 3 C4.34 5.31 3.68 7.62 3 10 C0.69 10.33 -1.62 10.66 -4 11 C-4 10.34 -4 9.68 -4 9 C-3.2884375 8.38125 -3.2884375 8.38125 -2.5625 7.75 C-0.41260332 5.34211572 -0.34954602 3.14591416 0 0 Z " fill="#211154" transform="translate(304,267)"/>
<path d="M0 0 C0.88099735 2.97818634 1.06705164 5.45292865 0.87890625 8.546875 C0.83056641 9.39121094 0.78222656 10.23554688 0.73242188 11.10546875 C0.67634766 11.97816406 0.62027344 12.85085937 0.5625 13.75 C0.51029297 14.63816406 0.45808594 15.52632812 0.40429688 16.44140625 C0.27498267 18.62799196 0.14003358 20.81407894 0 23 C-0.33 23 -0.66 23 -1 23 C-1.07347656 21.57107422 -1.07347656 21.57107422 -1.1484375 20.11328125 C-1.22320312 18.85902344 -1.29796875 17.60476562 -1.375 16.3125 C-1.44460938 15.07113281 -1.51421875 13.82976562 -1.5859375 12.55078125 C-1.9670717 9.28237568 -2.71282232 6.9877173 -4 4 C-4 3.01 -4 2.02 -4 1 C-2.68 0.67 -1.36 0.34 0 0 Z " fill="#473A70" transform="translate(310,233)"/>
<path d="M0 0 C1.65 0 3.3 0 5 0 C5 0.99 5 1.98 5 3 C5.66 3 6.32 3 7 3 C7 3.66 7 4.32 7 5 C6.401875 4.835 5.80375 4.67 5.1875 4.5 C2.88655664 3.8885876 2.88655664 3.8885876 0 4 C-1.2065625 3.9690625 -1.2065625 3.9690625 -2.4375 3.9375 C-4.80763007 3.99530805 -6.73747091 4.32962101 -9 5 C-9 4.34 -9 3.68 -9 3 C-8.34 3 -7.68 3 -7 3 C-7 2.34 -7 1.68 -7 1 C-4.69 1.33 -2.38 1.66 0 2 C0 1.34 0 0.68 0 0 Z " fill="#661CE9" transform="translate(102,203)"/>
<path d="M0 0 C0.66 0.33 1.32 0.66 2 1 C1.74279326 2.58560393 1.46861201 4.16845924 1.1875 5.75 C1.03667969 6.63171875 0.88585937 7.5134375 0.73046875 8.421875 C0 11 0 11 -3 15 C-3 11.04 -3 7.08 -3 3 C-2.34 3 -1.68 3 -1 3 C-0.67 2.01 -0.34 1.02 0 0 Z " fill="#455EE2" transform="translate(165,259)"/>
<path d="M0 0 C0.33 0 0.66 0 1 0 C1.06058594 0.90363281 1.12117188 1.80726563 1.18359375 2.73828125 C1.26738281 3.91777344 1.35117187 5.09726563 1.4375 6.3125 C1.55931641 8.07013672 1.55931641 8.07013672 1.68359375 9.86328125 C1.8867371 13.02590958 1.8867371 13.02590958 3 16 C2.01 16.66 1.02 17.32 0 18 C-0.28818935 19.9138874 -0.28818935 19.9138874 -0.0625 22 C0.08984375 24.125 0.08984375 24.125 0 26 C-0.66 26.66 -1.32 27.32 -2 28 C-2.02715383 26.25008666 -2.04646551 24.50005055 -2.0625 22.75 C-2.07410156 21.77546875 -2.08570313 20.8009375 -2.09765625 19.796875 C-2.01034613 17.29631326 -1.61795844 15.39913275 -1 13 C-0.7801777 10.75292759 -0.59516013 8.50228762 -0.4375 6.25 C-0.35371094 5.07953125 -0.26992188 3.9090625 -0.18359375 2.703125 C-0.12300781 1.81109375 -0.06242187 0.9190625 0 0 Z " fill="#625788" transform="translate(373,237)"/>
<path d="M0 0 C0.33 0.66 0.66 1.32 1 2 C0.67 2.66 0.34 3.32 0 4 C-1.33333333 4.33333333 -2.66666667 4.66666667 -4 5 C-4.33 5.66 -4.66 6.32 -5 7 C-4.34 7.33 -3.68 7.66 -3 8 C-4.65 8.33 -6.3 8.66 -8 9 C-8.20086443 5.28400809 -8.1519437 4.22791555 -6 1 C-2.875 0.3125 -2.875 0.3125 0 0 Z " fill="#42376A" transform="translate(403,249)"/>
<path d="M0 0 C-0.33 1.65 -0.66 3.3 -1 5 C-1.99 4.67 -2.98 4.34 -4 4 C-4.33 5.32 -4.66 6.64 -5 8 C-5.103125 7.360625 -5.20625 6.72125 -5.3125 6.0625 C-5.539375 5.381875 -5.76625 4.70125 -6 4 C-6.99 3.67 -7.98 3.34 -9 3 C-9 2.34 -9 1.68 -9 1 C-3.375 -1.125 -3.375 -1.125 0 0 Z " fill="#8542E9" transform="translate(100,219)"/>
<path d="M0 0 C0.66 0.33 1.32 0.66 2 1 C2 2.65 2 4.3 2 6 C-1.465 7.485 -1.465 7.485 -5 9 C-5 6.69 -5 4.38 -5 2 C-4.01 2.33 -3.02 2.66 -2 3 C-1.34 2.01 -0.68 1.02 0 0 Z " fill="#201052" transform="translate(205,256)"/>
<path d="M0 0 C0.66 0 1.32 0 2 0 C2 2.31 2 4.62 2 7 C1.01 7 0.02 7 -1 7 C-1 6.01 -1 5.02 -1 4 C-7.93 3.505 -7.93 3.505 -15 3 C-15 2.67 -15 2.34 -15 2 C-14.00097656 1.93941406 -13.00195312 1.87882813 -11.97265625 1.81640625 C-10.68230469 1.73261719 -9.39195312 1.64882812 -8.0625 1.5625 C-6.77472656 1.48128906 -5.48695313 1.40007812 -4.16015625 1.31640625 C-1.13976043 1.35080812 -1.13976043 1.35080812 0 0 Z " fill="#6C5E90" transform="translate(424,246)"/>
<path d="M0 0 C0.99 0.33 1.98 0.66 3 1 C2.34 3.31 1.68 5.62 1 8 C0.01 7.67 -0.98 7.34 -2 7 C-2.33 7.99 -2.66 8.98 -3 10 C-3.66 10 -4.32 10 -5 10 C-4.625 7.5625 -4.625 7.5625 -4 5 C-3.34 4.67 -2.68 4.34 -2 4 C-0.86649466 1.98330173 -0.86649466 1.98330173 0 0 Z " fill="#7814E9" transform="translate(78,220)"/>
<path d="M0 0 C0.99 0.33 1.98 0.66 3 1 C2.67 1.66 2.34 2.32 2 3 C3.32 2.67 4.64 2.34 6 2 C5.67 3.32 5.34 4.64 5 6 C4.34 6 3.68 6 3 6 C2.34 7.32 1.68 8.64 1 10 C-0.80411967 7.24075815 -1.0127245 6.11027897 -0.625 2.75 C-0.41875 1.8425 -0.2125 0.935 0 0 Z " fill="#304AE4" transform="translate(156,272)"/>
<path d="M0 0 C0.33 0.66 0.66 1.32 1 2 C0.22265625 3.9453125 0.22265625 3.9453125 -0.9375 6.125 C-1.31777344 6.84945312 -1.69804688 7.57390625 -2.08984375 8.3203125 C-2.54037109 9.15175781 -2.54037109 9.15175781 -3 10 C-3.66 10 -4.32 10 -5 10 C-5 10.99 -5 11.98 -5 13 C-5.99 13 -6.98 13 -8 13 C-6.66749209 9.4124787 -5.169283 6.1635377 -3 3 C-2.34 3 -1.68 3 -1 3 C-0.67 2.01 -0.34 1.02 0 0 Z " fill="#924CDE" transform="translate(79,215)"/>
<path d="M0 0 C3.3 0 6.6 0 10 0 C10 0.66 10 1.32 10 2 C10.66 2.33 11.32 2.66 12 3 C12 3.99 12 4.98 12 6 C11.01 6.33 10.02 6.66 9 7 C8.443125 6.38125 7.88625 5.7625 7.3125 5.125 C4.93354822 2.93893621 3.03642904 2.01214301 0 1 C0 0.67 0 0.34 0 0 Z " fill="#53407C" transform="translate(295,226)"/>
<path d="M0 0 C0.66 0 1.32 0 2 0 C1.67 1.65 1.34 3.3 1 5 C1.66 5.33 2.32 5.66 3 6 C2.0925 6.144375 1.185 6.28875 0.25 6.4375 C-2.85383236 6.91924539 -2.85383236 6.91924539 -5.25 7.625 C-7 8 -7 8 -9 7 C-4.25 4 -4.25 4 -2 4 C-2 3.34 -2 2.68 -2 2 C-1.34 2 -0.68 2 0 2 C0 1.34 0 0.68 0 0 Z " fill="#51457A" transform="translate(302,268)"/>
<path d="M0 0 C3.50698121 6.59885035 3.05700914 12.82859951 2 20 C1.67 20 1.34 20 1 20 C-0.03026944 13.30324864 -0.10152799 6.7685324 0 0 Z " fill="#8F4AE4" transform="translate(66,244)"/>
<path d="M0 0 C0.66 0 1.32 0 2 0 C1.34 1.98 0.68 3.96 0 6 C0.66 6 1.32 6 2 6 C1.34 7.32 0.68 8.64 0 10 C-0.99 10 -1.98 10 -3 10 C-3.33 10.66 -3.66 11.32 -4 12 C-4.66 10.68 -5.32 9.36 -6 8 C-5.01 8 -4.02 8 -3 8 C-2.01 5.36 -1.02 2.72 0 0 Z " fill="#6A19E7" transform="translate(94,210)"/>
<path d="M0 0 C0.99 0 1.98 0 3 0 C3 0.66 3 1.32 3 2 C3.99 2.33 4.98 2.66 6 3 C6.33 4.65 6.66 6.3 7 8 C7.99 8.33 8.98 8.66 10 9 C9.34 9.66 8.68 10.32 8 11 C6.5 9.625 6.5 9.625 5 8 C5 7.34 5 6.68 5 6 C4.34 6 3.68 6 3 6 C2.01 4.02 1.02 2.04 0 0 Z " fill="#7851DF" transform="translate(73,276)"/>
<path d="M0 0 C0.66 0.33 1.32 0.66 2 1 C2 1.66 2 2.32 2 3 C2.99 3.33 3.98 3.66 5 4 C4.01 4.33 3.02 4.66 2 5 C1.26676204 7.01508358 1.26676204 7.01508358 1 9 C0.01 8.34 -0.98 7.68 -2 7 C-1.125 1.125 -1.125 1.125 0 0 Z " fill="#201152" transform="translate(221,246)"/>
<path d="M0 0 C0.66 0 1.32 0 2 0 C2.77249145 5.40744018 3.09752461 10.53862186 3 16 C2.67 16 2.34 16 2 16 C0.13216954 10.51324804 -0.2358396 5.77807024 0 0 Z " fill="#44376D" transform="translate(201,266)"/>
<path d="M0 0 C0 0.66 0 1.32 0 2 C-1.89575251 2.02721176 -3.79161979 2.04649136 -5.6875 2.0625 C-7.27111328 2.07990234 -7.27111328 2.07990234 -8.88671875 2.09765625 C-11.72410262 2.00865425 -14.2438919 1.64939838 -17 1 C-17 0.67 -17 0.34 -17 0 C-11.06975197 -0.97040422 -5.93609666 -0.89316269 0 0 Z " fill="#3342CD" transform="translate(145,265)"/>
<path d="M0 0 C0.33 0 0.66 0 1 0 C1.33 3.63 1.66 7.26 2 11 C4.97 11.495 4.97 11.495 8 12 C8 12.66 8 13.32 8 14 C5.03 14 2.06 14 -1 14 C-0.67 9.38 -0.34 4.76 0 0 Z " fill="#B996F5" transform="translate(95,259)"/>
<path d="M0 0 C0.99 0.33 1.98 0.66 3 1 C2.34 1 1.68 1 1 1 C1.57344937 3.86724686 1.8614515 4.8614515 4 7 C4 10.10551666 3.4606285 11.35261084 2 14 C1.3291288 12.3767313 0.66342971 10.75132422 0 9.125 C-0.37125 8.22007812 -0.7425 7.31515625 -1.125 6.3828125 C-2 4 -2 4 -2 2 C-1.34 2 -0.68 2 0 2 C0 1.34 0 0.68 0 0 Z " fill="#675D91" transform="translate(190,220)"/>
<path d="M0 0 C0.66 0.33 1.32 0.66 2 1 C2.33 1.99 2.66 2.98 3 4 C3.66 4 4.32 4 5 4 C5 4.66 5 5.32 5 6 C2.36 6.33 -0.28 6.66 -3 7 C-2.625 4.0625 -2.625 4.0625 -2 1 C-1.34 0.67 -0.68 0.34 0 0 Z " fill="#201050" transform="translate(295,275)"/>
<path d="M0 0 C1.65 0 3.3 0 5 0 C5 2.31 5 4.62 5 7 C3.02 6.34 1.04 5.68 -1 5 C-0.67 3.35 -0.34 1.7 0 0 Z " fill="#3C2C6A" transform="translate(212,265)"/>
<path d="M0 0 C2 3 2 3 3 5 C3.99 4.34 4.98 3.68 6 3 C5.67 4.98 5.34 6.96 5 9 C4.01 8.34 3.02 7.68 2 7 C1.01 7.33 0.02 7.66 -1 8 C-0.67 5.36 -0.34 2.72 0 0 Z " fill="#3F3169" transform="translate(216,254)"/>
<path d="M0 0 C0.33 0 0.66 0 1 0 C2.33333333 5.33333333 3.66666667 10.66666667 5 16 C4.34 16 3.68 16 3 16 C3 15.34 3 14.68 3 14 C2.34 14 1.68 14 1 14 C0.06380187 10.84493858 -0.1057123 8.03413498 -0.0625 4.75 C-0.05347656 3.85796875 -0.04445313 2.9659375 -0.03515625 2.046875 C-0.02355469 1.37140625 -0.01195312 0.6959375 0 0 Z " fill="#635788" transform="translate(370,266)"/>
<path d="M0 0 C2 2 2 2 2 6 C1.505 6.474375 1.01 6.94875 0.5 7.4375 C-1.285826 8.96378798 -1.285826 8.96378798 -1.1875 11.6875 C-1.125625 12.450625 -1.06375 13.21375 -1 14 C-1.99 14 -2.98 14 -4 14 C-3.52372025 12.04096255 -3.04388577 10.08278903 -2.5625 8.125 C-2.29566406 7.03445312 -2.02882812 5.94390625 -1.75390625 4.8203125 C-1 2 -1 2 0 0 Z " fill="#645389" transform="translate(221,240)"/>
<path d="M0 0 C1.26237731 2.52475462 1.09856404 4.31200466 1.0625 7.125 C1.05347656 8.03507813 1.04445313 8.94515625 1.03515625 9.8828125 C1.02355469 10.58148438 1.01195313 11.28015625 1 12 C2.65 12 4.3 12 6 12 C6 12.33 6 12.66 6 13 C3.69 13 1.38 13 -1 13 C-2.0070238 7.96488101 -1.97387813 4.76052962 0 0 Z " fill="#4B2CC7" transform="translate(120,235)"/>
<path d="M0 0 C0.33 0.66 0.66 1.32 1 2 C2.65 2 4.3 2 6 2 C5.25 3.9375 5.25 3.9375 4 6 C1.875 6.75 1.875 6.75 0 7 C0 4.69 0 2.38 0 0 Z " fill="#4725EB" transform="translate(102,256)"/>
<path d="M0 0 C1.0326802 2.78823655 1.04509293 3.8677274 0.0625 6.75 C-0.288125 7.4925 -0.63875 8.235 -1 9 C-2.32 8.34 -3.64 7.68 -5 7 C-4.67 6.01 -4.34 5.02 -4 4 C-3.34 4 -2.68 4 -2 4 C-1.34 2.68 -0.68 1.36 0 0 Z " fill="#534578" transform="translate(235,223)"/>
<path d="M0 0 C1.85772162 0.08984301 3.71247985 0.24611861 5.5625 0.4375 C7.08037109 0.59025391 7.08037109 0.59025391 8.62890625 0.74609375 C9.80259766 0.87177734 9.80259766 0.87177734 11 1 C11 1.33 11 1.66 11 2 C7.7 2.33 4.4 2.66 1 3 C0.67 4.32 0.34 5.64 0 7 C0.66 7.33 1.32 7.66 2 8 C1.01 8 0.02 8 -1 8 C-1.04241723 5.66705225 -1.04092937 3.33297433 -1 1 C-0.67 0.67 -0.34 0.34 0 0 Z " fill="#685F8B" transform="translate(398,220)"/>
<path d="M0 0 C0.66 0 1.32 0 2 0 C2.33 2.31 2.66 4.62 3 7 C1.02 7.99 1.02 7.99 -1 9 C-1.125 2.25 -1.125 2.25 0 0 Z " fill="#211157" transform="translate(311,260)"/>
<path d="M0 0 C0.33 0 0.66 0 1 0 C1.18451025 9.41002278 1.18451025 9.41002278 0 14 C-0.33 14 -0.66 14 -1 14 C-1.22331199 12.41870971 -1.42804644 10.83478911 -1.625 9.25 C-1.74101562 8.36828125 -1.85703125 7.4865625 -1.9765625 6.578125 C-2.00207817 3.77140122 -1.44843844 2.36615134 0 0 Z " fill="#56407E" transform="translate(339,249)"/>
<path d="M0 0 C1.65 0 3.3 0 5 0 C3.90181099 3.29456702 3.08996146 4.45501927 0 6 C-0.99 5.67 -1.98 5.34 -3 5 C-2.67 4.01 -2.34 3.02 -2 2 C-1.34 2 -0.68 2 0 2 C0 1.34 0 0.68 0 0 Z " fill="#1F0F50" transform="translate(298,221)"/>
<path d="M0 0 C0.66 0 1.32 0 2 0 C2.33 2.31 2.66 4.62 3 7 C3.66 7 4.32 7 5 7 C5.33 7.99 5.66 8.98 6 10 C5.34 10.66 4.68 11.32 4 12 C3.3291288 10.3767313 2.66342971 8.75132422 2 7.125 C1.62875 6.22007812 1.2575 5.31515625 0.875 4.3828125 C0 2 0 2 0 0 Z " fill="#8F5DDD" transform="translate(68,264)"/>
<path d="M0 0 C0.99 0 1.98 0 3 0 C3 2.31 3 4.62 3 7 C2.01 7 1.02 7 0 7 C-0.38133299 5.0085944 -0.71325582 3.00720923 -1 1 C-0.67 0.67 -0.34 0.34 0 0 Z " fill="#2532EE" transform="translate(153,217)"/>
<path d="M0 0 C4.43458973 1.3937282 6.87378374 3.60582235 10 7 C7.03 6.505 7.03 6.505 4 6 C4 5.34 4 4.68 4 4 C3.01 3.67 2.02 3.34 1 3 C0.67 2.01 0.34 1.02 0 0 Z " fill="#6D68E2" transform="translate(141,205)"/>
<path d="M0 0 C0.66 1.32 1.32 2.64 2 4 C-0.31 5.98 -2.62 7.96 -5 10 C-5 8.68 -5 7.36 -5 6 C-4.34 6 -3.68 6 -3 6 C-3 5.34 -3 4.68 -3 4 C-2.01 4 -1.02 4 0 4 C0 2.68 0 1.36 0 0 Z " fill="#4D60E5" transform="translate(155,279)"/>
<path d="M0 0 C0.33 0 0.66 0 1 0 C1 1.98 1 3.96 1 6 C1.99 6.33 2.98 6.66 4 7 C3.03114628 8.68496298 2.03013277 10.35178756 1 12 C0.67 12 0.34 12 0 12 C0 8.04 0 4.08 0 0 Z " fill="#605485" transform="translate(401,237)"/>
<path d="M0 0 C1.98 0 3.96 0 6 0 C6 1.32 6 2.64 6 4 C3.03 3.505 3.03 3.505 0 3 C0 2.01 0 1.02 0 0 Z " fill="#4E24EC" transform="translate(113,216)"/>
<path d="M0 0 C1.65 0 3.3 0 5 0 C5.33 0.99 5.66 1.98 6 3 C1.25 4.125 1.25 4.125 -1 3 C-0.67 2.01 -0.34 1.02 0 0 Z " fill="#5322F0" transform="translate(81,281)"/>
<path d="M0 0 C-0.33 0.99 -0.66 1.98 -1 3 C-1 2.34 -1 1.68 -1 1 C-1.99 1.66 -2.98 2.32 -4 3 C-7.1875 2.625 -7.1875 2.625 -10 2 C-6.5980513 -0.09350689 -3.94727588 -0.17942163 0 0 Z M-9 3 C-7 4 -7 4 -7 4 Z " fill="#5F5287" transform="translate(364,272)"/>
<path d="M0 0 C2.00720923 0.28674418 4.0085944 0.61866701 6 1 C6 1.33 6 1.66 6 2 C4.35 2.33 2.7 2.66 1 3 C0.67 5.31 0.34 7.62 0 10 C-0.33 10 -0.66 10 -1 10 C-1.02689216 8.52093108 -1.04634621 7.04172517 -1.0625 5.5625 C-1.07410156 4.73878906 -1.08570312 3.91507813 -1.09765625 3.06640625 C-1 1 -1 1 0 0 Z " fill="#542EE0" transform="translate(112,219)"/>
<path d="M0 0 C-0.66 0 -1.32 0 -2 0 C-2 0.99 -2 1.98 -2 3 C-4.31 2.67 -6.62 2.34 -9 2 C-4.13793103 -1.24137931 -4.13793103 -1.24137931 0 0 Z " fill="#7C4CDA" transform="translate(104,202)"/>
<path d="M0 0 C0.66 0.33 1.32 0.66 2 1 C2 2.65 2 4.3 2 6 C0.68 5.67 -0.64 5.34 -2 5 C-1.34 3.35 -0.68 1.7 0 0 Z " fill="#200F54" transform="translate(205,264)"/>
<path d="M0 0 C1.46911544 3.81970016 0.52561108 6.30641529 -1 10 C-1.66 10.66 -2.32 11.32 -3 12 C-2.40075776 7.80530429 -1.42500059 3.99000166 0 0 Z " fill="#A96FE5" transform="translate(70,228)"/>
<path d="M0 0 C3.00617269 3.00617269 2.59585316 5.82381598 3 10 C1.5 8.9375 1.5 8.9375 0 7 C-0.1875 3.3125 -0.1875 3.3125 0 0 Z " fill="#524574" transform="translate(199,222)"/>
<path d="M0 0 C1.5 1.375 1.5 1.375 3 3 C3 3.66 3 4.32 3 5 C3.66 5 4.32 5 5 5 C5.33 6.32 5.66 7.64 6 9 C5.34 9 4.68 9 4 9 C4 8.01 4 7.02 4 6 C2.68 6 1.36 6 0 6 C0 4.02 0 2.04 0 0 Z " fill="#5863DF" transform="translate(156,217)"/>
<path d="M0 0 C3.3 0.99 6.6 1.98 10 3 C8.02 3.99 8.02 3.99 6 5 C3.98079663 3.69593116 1.98075027 2.36176581 0 1 C0 0.67 0 0.34 0 0 Z " fill="#6E5EDE" transform="translate(87,291)"/>
<path d="M0 0 C1.5 1.3125 1.5 1.3125 3 3 C3 3.99 3 4.98 3 6 C1.35 6.66 -0.3 7.32 -2 8 C-1.47731534 5.23723823 -0.89130413 2.6739124 0 0 Z " fill="#554781" transform="translate(308,256)"/>
<path d="M0 0 C1.27875 0.103125 2.5575 0.20625 3.875 0.3125 C4.95394531 0.39951172 4.95394531 0.39951172 6.0546875 0.48828125 C8 1 8 1 10 4 C8.68 4 7.36 4 6 4 C6 3.34 6 2.68 6 2 C4.35 2.33 2.7 2.66 1 3 C0.67 2.01 0.34 1.02 0 0 Z " fill="#422DDC" transform="translate(132,203)"/>
<path d="M0 0 C0.99 0.99 1.98 1.98 3 3 C2.6875 6.1875 2.6875 6.1875 2 9 C1.34 9 0.68 9 0 9 C0 6.03 0 3.06 0 0 Z " fill="#6C1FE0" transform="translate(68,255)"/>
<path d="M0 0 C-3.67410785 1.17571451 -7.16929183 1.07366746 -11 1 C-11 0.34 -11 -0.32 -11 -1 C-3.57142857 -2.42857143 -3.57142857 -2.42857143 0 0 Z " fill="#2438DD" transform="translate(148,255)"/>
<path d="M0 0 C1.98 0.99 1.98 0.99 4 2 C3.34 3.32 2.68 4.64 2 6 C1.34 6 0.68 6 0 6 C0 4.02 0 2.04 0 0 Z " fill="#1B35E8" transform="translate(148,248)"/>
</svg>
